<svg xmlns="http://www.w3.org/2000/svg" width="22.491" height="24.535" viewBox="0 0 22.491 24.535"><g opacity="0.83"><path d="M8.945,121.491A4.35,4.35,0,0,1,4.6,117.146V106.668H2.811A2.814,2.814,0,0,0,0,109.479v13.8a2.814,2.814,0,0,0,2.811,2.811H15.59A2.814,2.814,0,0,0,18.4,123.28v-1.789Zm0,0" transform="translate(0 -101.556)" fill="#b1abb5"/><path d="M144.357,2.811A2.811,2.811,0,0,0,141.545,0H130.811A2.811,2.811,0,0,0,128,2.811V15.59a2.811,2.811,0,0,0,2.811,2.811h10.734a2.811,2.811,0,0,0,2.811-2.811Zm0,0" transform="translate(-121.866)" fill="#b1abb5"/></g></svg>