<svg xmlns="http://www.w3.org/2000/svg" width="36" height="36" viewBox="0 0 36 36"><g transform="translate(-33 -612)"><g transform="translate(33 612)" fill="#fff" stroke="#707070" stroke-width="1"><circle cx="18" cy="18" r="18" stroke="none"/><circle cx="18" cy="18" r="17.5" fill="none"/></g><g transform="translate(-931.141 481.251)"><path d="M973.141,148.277c.079-.084.133-.145.19-.2q4.1-4.1,8.2-8.208c.161-.162.241-.156.4,0q4.085,4.1,8.181,8.191c.214.214.214.215-.074.322q-4.045,1.5-8.09,2.993a.589.589,0,0,1-.447,0q-4.043-1.5-8.09-2.993Zm14.394-.758c-.118-.113-.236-.224-.352-.337-1.825-1.782-3.6-3.613-5.388-5.431-.1-.106-.165-.171-.306-.026q-2.753,2.831-5.516,5.652c-.039.04-.121.068-.083.166,1.256,0,2.514,0,3.772,0a.357.357,0,0,0,.269-.149c.539-.55,1.083-1.095,1.613-1.653.138-.145.213-.165.361-.007.527.561,1.073,1.1,1.609,1.657a.37.37,0,0,0,.272.142c1.175.032,2.351.058,3.526.037C987.381,147.572,987.46,147.6,987.535,147.52Z" fill="#554e57"/><path d="M991.6,324.6c-.582.551-1.162,1.105-1.748,1.652q-3.267,3.049-6.535,6.1c-.132.123-.2.129-.334,0q-4.072-3.788-8.154-7.566l-.191-.174c.125-.043.2.021.283.05q4,1.465,8,2.939a.6.6,0,0,0,.448,0q4-1.5,8.01-2.982c.062-.023.125-.043.187-.064Z" transform="translate(-1.421 -175.628)" fill="#554e57"/></g></g></svg>