<svg xmlns="http://www.w3.org/2000/svg" width="36" height="36" viewBox="0 0 36 36"><g transform="translate(-48 -226)"><g transform="translate(48 226)" fill="#fff" stroke="#707070" stroke-width="1"><circle cx="18" cy="18" r="18" stroke="none"/><circle cx="18" cy="18" r="17.5" fill="none"/></g><g transform="translate(-96.228 158.422)"><g transform="translate(156.915 88.116)"><path d="M172.783,303.231l-5.037-3.529a.062.062,0,0,0-.087.085l5.044,7.565a.311.311,0,0,0,.517,0l5.044-7.565a.062.062,0,0,0-.087-.085l-5.037,3.529a.311.311,0,0,1-.357,0Z" transform="translate(-167.648 -299.69)" fill="#b1abb5"/></g><g transform="translate(156.266 74.578)"><path d="M168.786,85.011,163.1,74.738a.311.311,0,0,0-.544,0l-5.69,10.273Z" transform="translate(-156.862 -74.578)" fill="#b1abb5"/></g><g transform="translate(162.228 74.578)"><path d="M256,85.011h5.962l-5.69-10.273a.308.308,0,0,0-.272-.16Z" transform="translate(-256 -74.578)" fill="#786e79"/></g><g transform="translate(156.228 80.86)"><path d="M162.05,187.583l-5.689-3.986a.311.311,0,0,1,0-.509l5.689-3.986a.311.311,0,0,1,.357,0l5.689,3.986a.311.311,0,0,1,0,.509l-5.689,3.986A.311.311,0,0,1,162.05,187.583Z" transform="translate(-156.228 -179.045)" fill="#786e79"/></g><g transform="translate(162.228 80.86)"><path d="M256.178,187.583l5.689-3.986a.311.311,0,0,0,0-.509l-5.689-3.986a.31.31,0,0,0-.178-.056v8.594A.31.31,0,0,0,256.178,187.583Z" transform="translate(-256 -179.045)" fill="#554e57"/></g><g transform="translate(162.228 74.578)"><path d="M260.3,84.582a.311.311,0,0,1-.078.429h1.737l-5.69-10.273a.308.308,0,0,0-.272-.16v2.236Z" transform="translate(-256.001 -74.578)" fill="#554e57"/></g><g transform="translate(162.228 88.116)"><path d="M256.259,307.351l5.044-7.565a.062.062,0,0,0-.087-.085l-5.037,3.529a.31.31,0,0,1-.178.056v4.2a.308.308,0,0,0,.259-.138Z" transform="translate(-256 -299.689)" fill="#554e57"/></g><g transform="translate(162.228 83.315)"><path d="M261.868,221.445l-2.267-1.588.7,1.267a.311.311,0,0,1-.078.43L256,224.514V226a.311.311,0,0,0,.178-.056l5.689-3.986a.311.311,0,0,0,0-.509Z" transform="translate(-256 -219.857)" fill="#453e43"/></g><g transform="translate(162.228 88.116)"><path d="M261.215,299.7l-2.66,1.864L256,305.4v2.093a.308.308,0,0,0,.259-.138l5.044-7.565A.062.062,0,0,0,261.215,299.7Z" transform="translate(-256 -299.689)" fill="#453e43"/></g></g></g></svg>