<svg xmlns="http://www.w3.org/2000/svg" width="25.311" height="45.007" viewBox="0 0 25.311 45.007"><g transform="translate(-156.228 -74.578)"><g transform="translate(157.677 103.132)"><path d="M178.479,307.159l-10.623-7.444a.131.131,0,0,0-.184.18l10.638,15.956a.656.656,0,0,0,1.091,0L190.039,299.9a.131.131,0,0,0-.184-.18l-10.623,7.444a.656.656,0,0,1-.753,0Z" transform="translate(-167.648 -299.69)" fill="#fff"/></g><g transform="translate(156.309 74.578)"><path d="M182.012,96.584l-12-21.668a.656.656,0,0,0-1.147,0l-12,21.668Z" transform="translate(-156.862 -74.578)" fill="#fff"/></g><g transform="translate(168.884 74.578)"><path d="M256,96.584h12.575l-12-21.668a.649.649,0,0,0-.573-.338Z" transform="translate(-256 -74.578)" fill="#c4c4c4"/></g><g transform="translate(156.228 87.829)"><path d="M168.508,197.054l-12-8.408a.656.656,0,0,1,0-1.074l12-8.408a.655.655,0,0,1,.752,0l12,8.408a.656.656,0,0,1,0,1.074l-12,8.408A.655.655,0,0,1,168.508,197.054Z" transform="translate(-156.228 -179.045)" fill="#c4c4c4"/></g><g transform="translate(168.884 87.829)"><path d="M256.376,197.054l12-8.408a.656.656,0,0,0,0-1.074l-12-8.408a.655.655,0,0,0-.376-.119v18.128A.653.653,0,0,0,256.376,197.054Z" transform="translate(-256 -179.045)" fill="#8e8e8e"/></g><g transform="translate(168.884 103.132)"><path d="M256.545,315.85l10.638-15.956a.131.131,0,0,0-.184-.18l-10.623,7.444a.655.655,0,0,1-.376.119v8.866a.65.65,0,0,0,.545-.292Z" transform="translate(-256 -299.689)" fill="#8e8e8e"/></g></g></svg>