<svg xmlns="http://www.w3.org/2000/svg" xmlns:xlink="http://www.w3.org/1999/xlink" width="261.513" height="197.521" viewBox="0 0 261.513 197.521"><defs><linearGradient id="a" x1="-2.947" y1="0.049" x2="-3.49" y2="0.758" gradientUnits="objectBoundingBox"><stop offset="0" stop-color="#dae3fe"/><stop offset="1" stop-color="#e9effd"/></linearGradient><linearGradient id="b" x1="0.471" y1="1.066" x2="0.527" y2="-0.01" gradientUnits="objectBoundingBox"><stop offset="0" stop-color="#09005d"/><stop offset="1" stop-color="#1a0f91"/></linearGradient><linearGradient id="c" x1="-0.613" y1="4.255" x2="-2.155" y2="5.991" gradientUnits="objectBoundingBox"><stop offset="0" stop-color="#4042e2"/><stop offset="1" stop-color="#4f52ff"/></linearGradient><linearGradient id="d" x1="14.604" y1="0.417" x2="15.263" y2="1.226" xlink:href="#b"/><linearGradient id="e" x1="5.957" y1="0.743" x2="6.216" y2="-0.491" xlink:href="#b"/><linearGradient id="f" x1="15.873" y1="0.26" x2="17.233" y2="1.995" xlink:href="#b"/><linearGradient id="g" x1="14.917" y1="2.226" x2="12.486" y2="-1.529" xlink:href="#c"/><linearGradient id="h" x1="18.862" y1="3.031" x2="15.696" y2="-4.448" xlink:href="#c"/><linearGradient id="i" x1="-5.905" y1="0.5" x2="-4.905" y2="0.5" gradientUnits="objectBoundingBox"><stop offset="0" stop-color="#ff928e"/><stop offset="1" stop-color="#feb3b1"/></linearGradient><linearGradient id="j" x1="4.79" y1="0.224" x2="4.101" y2="0.657" xlink:href="#b"/><linearGradient id="k" x1="7.452" y1="0.71" x2="8.1" y2="2.453" gradientUnits="objectBoundingBox"><stop offset="0" stop-color="#fe7062"/><stop offset="1" stop-color="#ff928e"/></linearGradient><linearGradient id="l" x1="0.596" y1="-0.425" x2="0.255" y2="2.957" xlink:href="#i"/><linearGradient id="m" x1="-9.328" y1="-5.982" x2="-8.001" y2="-5.649" xlink:href="#i"/><linearGradient id="n" x1="10.299" y1="-0.467" x2="10.477" y2="0.954" xlink:href="#b"/><linearGradient id="o" x1="-44.27" y1="-19.832" x2="-37.982" y2="-18.778" xlink:href="#i"/><linearGradient id="p" y1="0.5" x2="1" y2="0.5" gradientUnits="objectBoundingBox"><stop offset="0" stop-color="#e1473d"/><stop offset="1" stop-color="#e9605a"/></linearGradient><linearGradient id="s" x1="-15.827" y1="0.5" x2="-14.827" y2="0.5" xlink:href="#b"/><linearGradient id="t" x1="0" y1="0.5" x2="1" y2="0.5" xlink:href="#a"/><linearGradient id="u" x1="-3.116" y1="1.052" x2="-3.159" y2="0.16" xlink:href="#i"/><linearGradient id="y" x1="4.873" y1="-1.058" x2="-10.04" y2="4.254" xlink:href="#b"/><linearGradient id="z" x1="1.174" y1="-34.318" x2="-0.593" y2="57.232" xlink:href="#b"/><linearGradient id="aa" x1="0.758" y1="-3" x2="-0.597" y2="15.393" xlink:href="#b"/><linearGradient id="ab" x1="0.51" y1="0.468" x2="1.212" y2="1.14" xlink:href="#i"/><linearGradient id="ac" x1="0.532" y1="0.006" x2="0.327" y2="3.202" xlink:href="#c"/><linearGradient id="ad" x1="0.39" y1="-0.523" x2="0.455" y2="0.147" xlink:href="#i"/><linearGradient id="ae" x1="0.311" y1="2.213" x2="0.471" y2="0.817" xlink:href="#c"/><linearGradient id="af" x1="0.554" y1="-2.158" x2="0.395" y2="6.275" xlink:href="#c"/><linearGradient id="ag" x1="0.281" y1="0.171" x2="0.902" y2="1.621" xlink:href="#c"/><linearGradient id="ah" x1="0.483" y1="-0.336" x2="0.526" y2="1.751" xlink:href="#i"/><linearGradient id="ai" x1="1.58" y1="0.5" x2="0.17" y2="0.5" xlink:href="#i"/><linearGradient id="aj" x1="1.899" y1="-0.703" x2="-0.051" y2="0.922" xlink:href="#b"/><linearGradient id="ak" x1="2.938" y1="0.5" x2="-2.189" y2="0.5" xlink:href="#i"/><linearGradient id="al" x1="0.489" y1="-3.247" x2="0.499" y2="0.317" xlink:href="#i"/><linearGradient id="am" x1="1.321" y1="-0.179" x2="-0.046" y2="0.949" xlink:href="#b"/><linearGradient id="an" x1="0.788" y1="8.81" x2="0.048" y2="11.247" xlink:href="#b"/><linearGradient id="ao" x1="0.733" y1="0.134" x2="0.333" y2="0.8" xlink:href="#b"/><linearGradient id="ap" x1="0" y1="0.5" x2="1" y2="0.5" xlink:href="#k"/></defs><g transform="translate(-56.487 -153)"><g transform="translate(-90.936 71.179)"><path d="M409.744,132.068c16.043,5.067,29.658,18.335,33.809,34.75,3.515,13.9-.968,27.2.43,40.978,1.194,11.764,3.311,21.635-.185,33.664a46.6,46.6,0,0,1-8.016,16.268c-20.768,25.9-65,17.073-94.325,16.175-24.514-.751-50.2-.287-74.474-4.26-15.665-2.564-74.109-16.7-37.035-35.583-1.566.8-15.318-18.909-16.311-20.338-9.35-13.449-18.01-28.853-20.24-45.323-6.254-46.2,46.193-67.322,84.416-56.314q3.478,1,6.846,2.34c11.794,4.7,22.463,12.11,34.6,15.95,12.465,3.943,30.345,5.745,43.355,4.884,10.023-.663,19.621-4.5,29.636-5.28A46.2,46.2,0,0,1,409.744,132.068Z" transform="translate(-40.954 -1)" fill="url(#a)"/><g transform="translate(347.673 146.359)"><path d="M1844.981,419.047h-43.338a1.677,1.677,0,0,1-1.677-1.677h0a1.677,1.677,0,0,1,1.677-1.677h43.338a1.677,1.677,0,0,1,1.677,1.677h0A1.677,1.677,0,0,1,1844.981,419.047Z" transform="translate(-1799.966 -415.693)" fill="#bdd0fb"/><path d="M1887.954,473.257h-43.338a1.677,1.677,0,0,1-1.677-1.677h0a1.677,1.677,0,0,1,1.677-1.677h43.338a1.677,1.677,0,0,1,1.677,1.677h0A1.677,1.677,0,0,1,1887.954,473.257Z" transform="translate(-1837.731 -463.334)" fill="#bdd0fb"/><path d="M1875.63,581.676h-31.014a1.677,1.677,0,0,1-1.677-1.677h0a1.677,1.677,0,0,1,1.677-1.677h31.014a1.677,1.677,0,0,1,1.677,1.677h0A1.677,1.677,0,0,1,1875.63,581.676Z" transform="translate(-1837.731 -558.615)" fill="#bdd0fb"/><path d="M1928.061,527.467h-43.338a1.677,1.677,0,0,1-1.677-1.677h0a1.677,1.677,0,0,1,1.677-1.677h43.338a1.677,1.677,0,0,1,1.677,1.677h0A1.677,1.677,0,0,1,1928.061,527.467Z" transform="translate(-1872.979 -510.975)" fill="#bdd0fb"/></g><g transform="translate(318.974 193.499)"><g transform="translate(0 10.891)"><path d="M1563.133,905.951a.178.178,0,0,0,.1.181l1.942.945a9.406,9.406,0,0,0,.82,2.937l-1.173,1.815a.178.178,0,0,0,.009.206l1.6,2.04a.177.177,0,0,0,.2.058l2.043-.706a9.413,9.413,0,0,0,2.656,1.5l.453,2.111a.178.178,0,0,0,.152.139l2.573.312a.178.178,0,0,0,.181-.1l.945-1.942a9.414,9.414,0,0,0,2.937-.821l1.814,1.174a.178.178,0,0,0,.206-.009l2.04-1.6a.178.178,0,0,0,.058-.2l-.706-2.042a9.417,9.417,0,0,0,1.5-2.656l2.112-.453a.177.177,0,0,0,.139-.152l.312-2.573a.177.177,0,0,0-.1-.181l-1.942-.945a9.408,9.408,0,0,0-.82-2.937l1.173-1.815a.178.178,0,0,0-.009-.206l-1.6-2.04a.178.178,0,0,0-.2-.058l-2.042.706a9.411,9.411,0,0,0-2.656-1.5l-.453-2.112a.177.177,0,0,0-.152-.139l-2.573-.312a.177.177,0,0,0-.181.1l-.945,1.942a9.414,9.414,0,0,0-2.937.82l-1.814-1.173a.177.177,0,0,0-.206.009l-2.041,1.6a.177.177,0,0,0-.058.2l.706,2.043a9.41,9.41,0,0,0-1.5,2.656l-2.112.453a.177.177,0,0,0-.139.152Zm9.307-.745a2.3,2.3,0,1,1,1.32,2.976A2.3,2.3,0,0,1,1572.439,905.207Z" transform="translate(-1563.131 -894.579)" fill="#91b3fa"/></g><g transform="translate(16.675)"><path d="M1700.737,811.022a.1.1,0,0,0,.055.1l1.078.525a5.232,5.232,0,0,0,.456,1.631l-.651,1.008a.1.1,0,0,0,.005.114l.888,1.133a.1.1,0,0,0,.11.032l1.135-.392a5.221,5.221,0,0,0,1.475.832l.252,1.173a.1.1,0,0,0,.084.077l1.429.173a.1.1,0,0,0,.1-.055l.525-1.079a5.231,5.231,0,0,0,1.631-.456l1.008.652a.1.1,0,0,0,.114-.005l1.133-.888a.1.1,0,0,0,.032-.11l-.392-1.134a5.224,5.224,0,0,0,.832-1.475l1.173-.252a.1.1,0,0,0,.077-.085l.174-1.429a.1.1,0,0,0-.055-.1l-1.078-.525a5.233,5.233,0,0,0-.456-1.632l.651-1.008a.1.1,0,0,0-.005-.114l-.888-1.133a.1.1,0,0,0-.11-.032l-1.135.392a5.225,5.225,0,0,0-1.475-.832l-.252-1.173a.1.1,0,0,0-.085-.077l-1.429-.173a.1.1,0,0,0-.1.055l-.524,1.079a5.231,5.231,0,0,0-1.632.456l-1.008-.652a.1.1,0,0,0-.114.005l-1.133.888a.1.1,0,0,0-.032.11l.392,1.134a5.231,5.231,0,0,0-.833,1.475l-1.173.252a.1.1,0,0,0-.077.084Zm5.169-.414a1.278,1.278,0,1,1,.733,1.653A1.278,1.278,0,0,1,1705.906,810.609Z" transform="translate(-1700.736 -804.706)" fill="#91b3fa"/></g><g transform="translate(15.945 4.993)"><path d="M1694.72,882.646a.574.574,0,0,0,.319.585l6.274,3.052a30.41,30.41,0,0,0,2.65,9.489l-3.791,5.863a.573.573,0,0,0,.03.665l5.165,6.591a.574.574,0,0,0,.639.188l6.6-2.28a30.408,30.408,0,0,0,8.581,4.842l1.464,6.821a.573.573,0,0,0,.492.449l8.313,1.008a.574.574,0,0,0,.585-.318l3.052-6.274a30.4,30.4,0,0,0,9.49-2.65l5.862,3.791a.574.574,0,0,0,.665-.03l6.591-5.165a.574.574,0,0,0,.188-.639l-2.28-6.6a30.413,30.413,0,0,0,4.842-8.581l6.821-1.464a.574.574,0,0,0,.449-.492l1.008-8.313a.574.574,0,0,0-.319-.585l-6.274-3.052a30.4,30.4,0,0,0-2.651-9.489l3.791-5.862a.574.574,0,0,0-.03-.665l-5.165-6.591a.574.574,0,0,0-.639-.188l-6.6,2.28a30.4,30.4,0,0,0-8.581-4.842l-1.464-6.822a.574.574,0,0,0-.492-.449l-8.313-1.008a.574.574,0,0,0-.585.319l-3.052,6.274a30.41,30.41,0,0,0-9.489,2.651L1713,851.363a.573.573,0,0,0-.665.03l-6.591,5.165a.574.574,0,0,0-.188.639l2.28,6.6a30.411,30.411,0,0,0-4.842,8.581l-6.822,1.464a.574.574,0,0,0-.449.492Zm30.066-2.405a7.436,7.436,0,1,1,4.263,9.612A7.436,7.436,0,0,1,1724.786,880.24Z" transform="translate(-1694.715 -845.907)" fill="#91b3fa"/><g transform="translate(12.243 12.118)"><path d="M1862.761,1026.733a.585.585,0,0,1-.448-.208l-.375-.444a.272.272,0,1,1,.415-.351l.376.444a.042.042,0,0,0,.032.015l.378-.144a.272.272,0,1,1,.2.507l-.362.141A.582.582,0,0,1,1862.761,1026.733Zm-10.948-.249a.583.583,0,0,1-.237-.05l-.647-.285a.272.272,0,0,1,.22-.5l.647.285c.023,0,.037,0,.048-.01l.179-.193a.272.272,0,0,1,.4.37l-.179.193A.588.588,0,0,1,1851.813,1026.484Zm12.693-.405a.272.272,0,0,1-.1-.526l1.268-.492a.272.272,0,0,1,.2.508l-1.268.492A.272.272,0,0,1,1864.505,1026.079Zm-14.711-.455a.276.276,0,0,1-.11-.023l-1.244-.549a.272.272,0,1,1,.219-.5l1.244.549a.272.272,0,0,1-.11.521Zm3.353-.43a.272.272,0,0,1-.2-.457l.924-1a.272.272,0,1,1,.4.37l-.925,1A.27.27,0,0,1,1853.147,1025.193Zm8.12-.054a.271.271,0,0,1-.208-.1l-.878-1.038a.272.272,0,0,1,.415-.351l.878,1.038a.272.272,0,0,1-.208.448Zm5.774-.044a.272.272,0,0,1-.1-.526l.116-.045a.043.043,0,0,0,.027-.04l-.032-.847a.272.272,0,1,1,.544-.021l.032.845a.6.6,0,0,1-.374.569l-.116.045A.272.272,0,0,1,1867.041,1025.1Zm-19.715-.627a.252.252,0,0,1-.22-.123.589.589,0,0,1-.083-.3l0-.051.1-1.158a.269.269,0,0,1,.294-.248.272.272,0,0,1,.248.293l-.1,1.16a.287.287,0,0,1-.091.386A.293.293,0,0,1,1847.326,1024.469Zm10.537-.608a.272.272,0,0,1,0-.544c.442,0,.892-.026,1.336-.067a.272.272,0,1,1,.049.542c-.458.041-.923.065-1.38.069Zm-1.359-.043h-.02c-.46-.034-.922-.086-1.373-.156a.272.272,0,1,1,.084-.538c.436.068.883.119,1.329.152a.272.272,0,0,1-.02.543Zm10.769-1.277a.272.272,0,0,1-.272-.262l-.052-1.359a.272.272,0,0,1,.261-.282.264.264,0,0,1,.282.261l.052,1.359a.272.272,0,0,1-.261.282Zm-19.767-.767h-.023a.272.272,0,0,1-.249-.293l.1-1.174a.272.272,0,0,1,.4-.354l.166.127-.121,1.446A.272.272,0,0,1,1847.507,1021.775Zm20.59-1.5a.272.272,0,0,1-.168-.486c.348-.273.69-.565,1.018-.868a.272.272,0,0,1,.369.4c-.339.313-.692.614-1.051.9A.27.27,0,0,1,1868.1,1020.271Zm-21.577-.694a.27.27,0,0,1-.181-.07c-.342-.306-.675-.63-.99-.964a.272.272,0,0,1,.395-.374c.306.323.628.636.959.933a.272.272,0,0,1-.182.474Zm23.57-1.152a.272.272,0,0,1-.2-.456c.3-.328.59-.671.863-1.021a.272.272,0,1,1,.43.334c-.281.362-.581.717-.892,1.056A.272.272,0,0,1,1870.09,1018.425Zm-12.28-.288q-.162,0-.324,0a.272.272,0,0,1-.264-.279.264.264,0,0,1,.279-.265,10.848,10.848,0,0,0,1.325-.043.268.268,0,0,1,.3.245.271.271,0,0,1-.245.3C1858.525,1018.12,1858.166,1018.137,1857.811,1018.137Zm-1.67-.128a.284.284,0,0,1-.042,0,11.449,11.449,0,0,1-1.361-.3.272.272,0,0,1,.148-.523,10.935,10.935,0,0,0,1.3.281.272.272,0,0,1-.041.541Zm4.053-.132a.272.272,0,0,1-.058-.538,10.952,10.952,0,0,0,1.275-.364.272.272,0,0,1,.181.513,11.472,11.472,0,0,1-1.339.382A.287.287,0,0,1,1860.194,1017.877Zm-15.542-.273a.272.272,0,0,1-.212-.1c-.244-.3-.482-.621-.707-.944a.272.272,0,0,1,.07-.532l.219-.009.085.124c.239.349.494.692.757,1.019a.272.272,0,0,1-.212.443Zm30.309-.1-.051,0a.272.272,0,0,1,.05-.542.043.043,0,0,0,.04-.025l.392-.889a.272.272,0,1,1,.5.219l-.392.889A.587.587,0,0,1,1874.961,1017.506Zm-1.38-.114h-.023l-1.355-.113a.272.272,0,1,1,.045-.542l1.355.113a.272.272,0,0,1-.022.543Zm-20.051-.12a.272.272,0,0,1-.1-.021l-.191-.082a11.641,11.641,0,0,1-1.058-.533.272.272,0,0,1,.27-.472,11.053,11.053,0,0,0,1.008.508c.061.027.121.053.181.078a.272.272,0,0,1-.105.523Zm9.224-.3a.272.272,0,0,1-.121-.516,10.909,10.909,0,0,0,1.149-.661.272.272,0,1,1,.3.454,11.438,11.438,0,0,1-1.207.694A.272.272,0,0,1,1862.753,1016.974Zm-21.658-.3a.272.272,0,0,1-.01-.544l1.359-.052a.265.265,0,0,1,.282.261.272.272,0,0,1-.262.282l-1.359.051Zm-1.317-.1a.265.265,0,0,1-.22-.117.593.593,0,0,1-.06-.115l-.467-1.2a.272.272,0,1,1,.507-.2l.466,1.2a.274.274,0,0,1-.226.429Zm11.4-.646a.269.269,0,0,1-.162-.054,11.171,11.171,0,0,1-1.062-.9.272.272,0,1,1,.377-.392,10.727,10.727,0,0,0,1.011.857.272.272,0,0,1-.163.49Zm13.844-.446a.272.272,0,0,1-.177-.479,10.82,10.82,0,0,0,.954-.921.272.272,0,1,1,.4.367,11.213,11.213,0,0,1-1,.968A.27.27,0,0,1,1865.017,1015.479Zm11.172-.295a.269.269,0,0,1-.11-.023.272.272,0,0,1-.139-.359l.549-1.244a.272.272,0,0,1,.5.219l-.549,1.244A.272.272,0,0,1,1876.189,1015.185Zm-26.972-1.139a.271.271,0,0,1-.211-.1c-.16-.2-.313-.4-.458-.6a.272.272,0,1,1,.444-.313c.137.194.283.387.435.574a.272.272,0,0,1-.211.443Zm-10.425,0a.272.272,0,0,1-.254-.174l-.492-1.268a.272.272,0,1,1,.507-.2l.492,1.268a.272.272,0,0,1-.253.37Zm28.057-.564a.272.272,0,0,1-.221-.429,10.889,10.889,0,0,0,.7-1.126.272.272,0,0,1,.479.258,11.344,11.344,0,0,1-.735,1.183A.272.272,0,0,1,1866.849,1013.477Zm10.129-.766a.27.27,0,0,1-.185-.073l-1-.925a.272.272,0,1,1,.37-.4l1,.925a.272.272,0,0,1-.185.472Zm-38.5-1.085a.272.272,0,0,1-.176-.479l1.038-.879a.272.272,0,0,1,.352.416l-1.039.878A.271.271,0,0,1,1838.476,1011.626Zm29.662-.536a.272.272,0,0,1-.253-.371,10.893,10.893,0,0,0,.408-1.261.272.272,0,1,1,.527.135,11.428,11.428,0,0,1-.428,1.325A.273.273,0,0,1,1868.138,1011.09Zm6.845-.228a.271.271,0,0,1-.185-.073l-.871-.808.028-.147q.029-.156.055-.312a.272.272,0,1,1,.536.09c-.01.058-.02.116-.03.174l.652.6a.272.272,0,0,1-.185.472Zm-34.431-.993a.272.272,0,0,1-.176-.48l.437-.37q-.032-.247-.058-.494a.272.272,0,1,1,.541-.055q.032.312.076.622l.021.149-.666.564A.273.273,0,0,1,1840.552,1009.87Zm33.9-1.379h-.023a.272.272,0,0,1-.248-.294c.037-.442.057-.892.058-1.336a.272.272,0,0,1,.272-.271h0a.272.272,0,0,1,.271.273c0,.459-.022.924-.06,1.38A.272.272,0,0,1,1874.448,1008.491Zm-5.635-.028-.035,0a.273.273,0,0,1-.235-.3,10.716,10.716,0,0,0,.088-1.322.272.272,0,0,1,.272-.271h0a.272.272,0,0,1,.271.273,11.256,11.256,0,0,1-.092,1.389A.272.272,0,0,1,1868.813,1008.462Zm-27.87-1.049a.272.272,0,0,1-.272-.266c0-.117,0-.234,0-.351,0-.342.01-.688.031-1.03a.275.275,0,0,1,.288-.255.272.272,0,0,1,.255.288c-.02.331-.03.666-.03,1q0,.17,0,.34a.272.272,0,0,1-.267.278Zm33.511-1.639a.272.272,0,0,1-.271-.251c-.026-.333-.063-.671-.11-1l-.021-.149.37-.313a.272.272,0,1,1,.352.415l-.141.119c.039.3.07.593.094.887a.272.272,0,0,1-.25.293Zm-5.63-.024a.273.273,0,0,1-.27-.24,10.874,10.874,0,0,0-.237-1.3.272.272,0,0,1,.528-.13,11.438,11.438,0,0,1,.249,1.369.272.272,0,0,1-.238.3Zm-21.868-.924a.28.28,0,0,1-.055-.005.272.272,0,0,1-.212-.322,11.368,11.368,0,0,1,.364-1.344.272.272,0,1,1,.515.174,10.826,10.826,0,0,0-.347,1.279A.272.272,0,0,1,1846.957,1004.826Zm-5.848-.125-.039,0a.272.272,0,0,1-.231-.308q.04-.282.091-.564l-.367-.34a.272.272,0,1,1,.37-.4l.587.544-.028.148q-.065.344-.114.689A.272.272,0,0,1,1841.109,1004.7Zm34.527-1.041a.272.272,0,0,1-.176-.48l1.038-.878a.272.272,0,0,1,.351.415l-1.038.879A.273.273,0,0,1,1875.636,1003.66Zm-7.458-.545a.272.272,0,0,1-.254-.175,10.9,10.9,0,0,0-.546-1.208.272.272,0,0,1,.481-.254,11.462,11.462,0,0,1,.573,1.269.272.272,0,0,1-.158.351A.269.269,0,0,1,1868.178,1003.115Zm-28.427-.481a.269.269,0,0,1-.185-.073l-1-.924a.272.272,0,0,1,.37-.4l1,.925a.272.272,0,0,1-.185.471Zm8.074-.379a.266.266,0,0,1-.117-.027.272.272,0,0,1-.128-.362,11.388,11.388,0,0,1,.677-1.217.272.272,0,0,1,.458.293,10.941,10.941,0,0,0-.645,1.158A.271.271,0,0,1,1847.824,1002.255Zm29.461-.51a.272.272,0,0,1-.254-.174l-.491-1.268a.272.272,0,1,1,.507-.2l.492,1.268a.272.272,0,0,1-.254.37Zm-10.373-1.03a.271.271,0,0,1-.224-.117,10.879,10.879,0,0,0-.822-1.04.272.272,0,1,1,.405-.363,11.38,11.38,0,0,1,.864,1.093.272.272,0,0,1-.223.427Zm-28.362-.143a.272.272,0,0,1-.249-.382l.549-1.244a.272.272,0,1,1,.5.219l-.549,1.245A.272.272,0,0,1,1838.551,1000.572Zm10.736-.6a.272.272,0,0,1-.209-.446,11.272,11.272,0,0,1,.954-1.015.272.272,0,0,1,.373.4,10.759,10.759,0,0,0-.908.966A.271.271,0,0,1,1849.287,999.969Zm27.016-.76a.272.272,0,0,1-.254-.174l-.492-1.268a.272.272,0,1,1,.507-.2l.492,1.268a.272.272,0,0,1-.254.37Zm-11.2-.515a.27.27,0,0,1-.178-.067,10.818,10.818,0,0,0-1.052-.807.272.272,0,0,1,.3-.451,11.374,11.374,0,0,1,1.105.849.272.272,0,0,1-.179.477Zm-13.838-.584a.272.272,0,0,1-.161-.492,11.461,11.461,0,0,1,1.172-.751.272.272,0,1,1,.265.475,10.868,10.868,0,0,0-1.116.716A.273.273,0,0,1,1851.264,998.11Zm-11.616-.027a.272.272,0,0,1-.249-.382l.549-1.245a.587.587,0,0,1,.536-.35l.051,0,.384.032a.272.272,0,1,1-.045.542l-.386-.032c-.03,0-.036.01-.043.026l-.549,1.244A.273.273,0,0,1,1839.648,998.083Zm31.776-.489-.085-.124c-.166-.242-.341-.484-.521-.719a.272.272,0,0,1,.432-.331c.155.2.307.41.452.619l.308-.012a.266.266,0,0,1,.282.261.272.272,0,0,1-.261.282Zm1.955-.075a.272.272,0,0,1-.01-.544l1.359-.051a.264.264,0,0,1,.282.261.272.272,0,0,1-.262.282l-1.359.052Zm-10.528-.343a.271.271,0,0,1-.124-.03q-.268-.137-.549-.26c-.22-.1-.444-.187-.667-.268a.272.272,0,0,1,.187-.511c.234.085.469.18.7.282q.294.129.577.274a.272.272,0,0,1-.124.514Zm-19.244-.266h-.023l-1.355-.113a.272.272,0,0,1-.249-.294.268.268,0,0,1,.294-.248l1.355.113a.272.272,0,0,1-.022.543Zm10.025-.123a.272.272,0,0,1-.1-.524,11.46,11.46,0,0,1,1.319-.446.272.272,0,0,1,.143.525,10.938,10.938,0,0,0-1.256.424A.273.273,0,0,1,1853.632,996.787Zm-8.913-.321a.272.272,0,0,1-.211-.444c.29-.356.6-.7.916-1.035a.272.272,0,0,1,.392.377c-.307.32-.606.657-.887,1A.271.271,0,0,1,1844.72,996.467Zm15.583-.219a.265.265,0,0,1-.061-.007,10.716,10.716,0,0,0-1.307-.218.272.272,0,0,1,.056-.541,11.3,11.3,0,0,1,1.374.229.272.272,0,0,1-.061.537Zm-4.053-.171a.272.272,0,0,1-.038-.541,11.365,11.365,0,0,1,1.387-.113.278.278,0,0,1,.277.266.272.272,0,0,1-.267.277,10.764,10.764,0,0,0-1.321.108Zm13.914-.264a.273.273,0,0,1-.2-.09c-.3-.329-.612-.65-.936-.955a.272.272,0,0,1,.372-.4c.335.314.66.646.968.986a.272.272,0,0,1-.2.455Zm-23.561-1.305a.272.272,0,0,1-.18-.476c.344-.3.7-.6,1.072-.872a.272.272,0,0,1,.326.436c-.356.266-.7.55-1.038.844A.271.271,0,0,1,1846.6,994.508Zm21.58-.555a.271.271,0,0,1-.169-.059q-.171-.136-.347-.268l-.12-.09.089-1.061a.267.267,0,0,1,.293-.248.272.272,0,0,1,.249.293l-.064.762q.12.092.238.186a.272.272,0,0,1-.17.485Zm-19.975-1.366a.272.272,0,0,1-.272-.262l-.052-1.359a.272.272,0,0,1,.262-.282.268.268,0,0,1,.282.261l.052,1.359a.272.272,0,0,1-.261.282Zm19.812-1.173H1868a.272.272,0,0,1-.249-.294l.113-1.356a.269.269,0,0,1,.294-.248.272.272,0,0,1,.248.293l-.113,1.355A.272.272,0,0,1,1868.021,991.414Zm-7.345-.857a.273.273,0,0,1-.049,0c-.436-.078-.882-.14-1.325-.182a.272.272,0,0,1,.052-.541c.457.044.918.107,1.369.188a.272.272,0,0,1-.048.54Zm-5.368-.2a.272.272,0,0,1-.208-.1l-.878-1.038a.272.272,0,0,1,.415-.351l.878,1.039a.272.272,0,0,1-.032.383A.269.269,0,0,1,1855.308,990.353Zm1.3-.02a.272.272,0,0,1-.018-.543c.46-.031.923-.042,1.381-.037a.272.272,0,0,1-.007.544c-.442-.006-.891.006-1.337.036Zm-8.506-.464a.272.272,0,0,1-.272-.262l-.017-.457a.6.6,0,0,1,.374-.569l.478-.185a.272.272,0,0,1,.2.507l-.478.185a.043.043,0,0,0-.027.04l.018.459a.272.272,0,0,1-.262.282Zm13.533-.192a.272.272,0,0,1-.2-.457l.924-1a.272.272,0,1,1,.4.37l-.924,1A.271.271,0,0,1,1861.639,989.676Zm5.613-.437a.273.273,0,0,1-.11-.023l-1.244-.549a.272.272,0,1,1,.22-.5l1.244.549a.272.272,0,0,1-.11.521Zm-17.217-.81a.272.272,0,0,1-.1-.526l1.268-.492a.272.272,0,0,1,.2.507l-1.268.492A.272.272,0,0,1,1850.035,988.429Zm3.517-.153a.271.271,0,0,1-.208-.1l-.626-.74a.042.042,0,0,0-.032-.015l-.214-.5a.6.6,0,0,1,.661.168l.626.74a.272.272,0,0,1-.208.448Zm11.211-.134a.271.271,0,0,1-.109-.023l-1-.442a.292.292,0,0,1-.378-.134.265.265,0,0,1,.117-.36.593.593,0,0,1,.48,0l1,.442a.272.272,0,0,1-.11.521Z" transform="translate(-1832.906 -981.916)" fill="#bdd0fb"/><path d="M1969,1124.106a4.346,4.346,0,0,1-1-.117.272.272,0,0,1,.125-.529,3.8,3.8,0,0,0,1.261.083.272.272,0,0,1,.055.542A4.388,4.388,0,0,1,1969,1124.106Zm1.717-.377a.272.272,0,0,1-.114-.519,3.772,3.772,0,0,0,1.042-.714.272.272,0,0,1,.378.392,4.312,4.312,0,0,1-1.191.816A.266.266,0,0,1,1970.715,1123.729Zm-3.9-.26a.271.271,0,0,1-.146-.043c-.117-.075-.232-.156-.341-.241a4.38,4.38,0,0,1-.731-.725.272.272,0,1,1,.426-.339,3.834,3.834,0,0,0,.641.634c.1.075.2.146.3.211a.272.272,0,0,1-.147.5Zm5.825-1.593a.265.265,0,0,1-.123-.03.272.272,0,0,1-.119-.365,3.777,3.777,0,0,0,.378-1.205.272.272,0,0,1,.539.074,4.313,4.313,0,0,1-.432,1.378A.272.272,0,0,1,1972.637,1121.876Zm-7.485-.5a.272.272,0,0,1-.257-.183,4.371,4.371,0,0,1-.245-1.423.272.272,0,0,1,.271-.273h0a.272.272,0,0,1,.272.271,3.817,3.817,0,0,0,.214,1.246.272.272,0,0,1-.257.362Zm7.849-2.147a.272.272,0,0,1-.267-.219,3.794,3.794,0,0,0-.448-1.181.272.272,0,0,1,.47-.275,4.347,4.347,0,0,1,.512,1.35.272.272,0,0,1-.214.32A.264.264,0,0,1,1973,1119.232Zm-7.86-.523a.272.272,0,0,1-.258-.36,4.376,4.376,0,0,1,1.569-2.119.272.272,0,1,1,.319.44,3.828,3.828,0,0,0-1.373,1.855A.272.272,0,0,1,1965.141,1118.709Zm6.511-1.78a.273.273,0,0,1-.177-.065c-.043-.037-.087-.073-.132-.108a3.81,3.81,0,0,0-.95-.543.272.272,0,0,1,.2-.506,4.341,4.341,0,0,1,1.086.621c.051.04.1.082.152.124a.272.272,0,0,1-.177.479Zm-3.828-.806a.272.272,0,0,1-.078-.532,4.347,4.347,0,0,1,1.432-.181.271.271,0,0,1,.261.282.266.266,0,0,1-.282.261,3.87,3.87,0,0,0-1.254.159A.285.285,0,0,1,1967.824,1116.122Z" transform="translate(-1944.183 -1094.866)" fill="#bdd0fb"/><g transform="translate(3.599 27.687)"><path d="M1826.094,1257.057a.272.272,0,0,1-.228-.123q-.189-.288-.369-.579a.272.272,0,1,1,.463-.286q.176.285.361.567a.272.272,0,0,1-.227.421Z" transform="translate(-1825.457 -1246.059)" fill="#bdd0fb"/><path d="M1855.034,1211.243q-.459,0-.918-.017a.272.272,0,1,1,.02-.543q.682.025,1.363.012a.275.275,0,0,1,.277.267.272.272,0,0,1-.267.277Q1855.272,1211.243,1855.034,1211.243Zm1.847-.069a.272.272,0,0,1-.02-.543c.452-.034.908-.081,1.357-.139a.272.272,0,1,1,.071.539c-.458.06-.925.108-1.387.143Zm-4.131-.037h-.025c-.461-.043-.926-.1-1.384-.168a.272.272,0,0,1,.081-.538c.448.067.9.122,1.354.164a.272.272,0,0,1-.025.543Zm6.864-.322a.272.272,0,0,1-.05-.539c.446-.084.895-.181,1.332-.289a.272.272,0,1,1,.13.528c-.448.11-.906.21-1.362.3A.283.283,0,0,1,1859.615,1210.816Zm-9.59-.087a.285.285,0,0,1-.055-.006c-.455-.095-.911-.2-1.357-.322a.272.272,0,1,1,.141-.525c.436.116.882.222,1.327.314a.272.272,0,0,1-.055.539Zm12.266-.573a.272.272,0,0,1-.08-.532c.435-.134.869-.28,1.292-.436a.272.272,0,0,1,.189.51c-.432.159-.876.309-1.321.446A.273.273,0,0,1,1862.29,1210.156Zm-14.929-.139a.261.261,0,0,1-.085-.014c-.441-.145-.882-.3-1.312-.472a.272.272,0,1,1,.2-.506c.42.165.852.32,1.283.462a.272.272,0,0,1-.085.531Zm17.516-.815a.272.272,0,0,1-.109-.522c.417-.181.832-.375,1.235-.578a.272.272,0,1,1,.244.486c-.412.207-.837.406-1.262.591A.274.274,0,0,1,1864.876,1209.2Zm-20.083-.192a.271.271,0,0,1-.113-.025c-.42-.193-.841-.4-1.25-.617a.272.272,0,1,1,.254-.481c.4.212.812.415,1.223.6a.272.272,0,0,1-.114.519Zm22.545-1.046a.272.272,0,0,1-.136-.508c.4-.228.786-.467,1.162-.713a.272.272,0,0,1,.3.455c-.384.251-.784.5-1.188.729A.272.272,0,0,1,1867.339,1207.965Zm-24.982-.244a.267.267,0,0,1-.14-.039c-.4-.238-.79-.492-1.173-.753a.272.272,0,1,1,.306-.449c.375.256.761.5,1.148.737a.272.272,0,0,1-.141.5Zm27.29-1.262a.272.272,0,0,1-.161-.491c.364-.268.725-.55,1.074-.839a.272.272,0,0,1,.347.419c-.357.3-.726.584-1.1.858A.271.271,0,0,1,1869.646,1206.458Zm-29.568-.291a.27.27,0,0,1-.165-.056l-.178-.138c-.305-.238-.609-.487-.9-.74a.272.272,0,1,1,.354-.413c.289.248.587.491.886.725l.174.135a.272.272,0,0,1-.166.488Zm31.691-1.465a.272.272,0,0,1-.185-.471c.332-.307.659-.629.974-.954a.272.272,0,0,1,.392.378c-.321.333-.656.662-1,.976A.271.271,0,0,1,1871.769,1204.7Zm-33.783-.33a.272.272,0,0,1-.188-.076c-.334-.321-.664-.655-.979-.992a.272.272,0,1,1,.4-.371c.308.33.63.657.957.971a.272.272,0,0,1-.188.469Zm35.7-1.654a.272.272,0,0,1-.206-.45c.263-.306.523-.622.772-.941l.09-.116a.272.272,0,1,1,.432.331l-.093.119c-.254.326-.519.649-.789.961A.271.271,0,0,1,1873.683,1202.719Zm-37.576-.363a.27.27,0,0,1-.209-.1c-.3-.355-.585-.724-.861-1.1a.272.272,0,1,1,.437-.324c.27.364.553.725.842,1.072a.272.272,0,0,1-.209.446Zm39.259-1.821a.272.272,0,0,1-.224-.426c.256-.373.505-.758.74-1.145a.272.272,0,1,1,.465.283c-.24.4-.495.789-.756,1.171A.271.271,0,0,1,1875.366,1200.535Zm1.431-2.356a.272.272,0,0,1-.24-.4c.213-.4.417-.81.607-1.221a.272.272,0,0,1,.494.229c-.194.42-.4.84-.621,1.248A.272.272,0,0,1,1876.8,1198.179Zm1.158-2.5a.272.272,0,0,1-.253-.372c.167-.421.323-.852.466-1.281a.272.272,0,1,1,.516.172c-.146.439-.306.88-.477,1.31A.272.272,0,0,1,1877.955,1195.678Zm.869-2.616a.263.263,0,0,1-.071-.009.272.272,0,0,1-.192-.333c.118-.436.225-.881.319-1.326a.272.272,0,0,1,.532.113c-.1.454-.206.91-.326,1.355A.272.272,0,0,1,1878.824,1193.062Z" transform="translate(-1833.828 -1189.144)" fill="#bdd0fb"/><path d="M2199.5,1175.614a.249.249,0,0,1-.042,0,.272.272,0,0,1-.228-.31q.051-.332.093-.665a.272.272,0,0,1,.54.067q-.042.341-.094.681A.272.272,0,0,1,2199.5,1175.614Z" transform="translate(-2153.937 -1174.397)" fill="#bdd0fb"/></g><path d="M2158.872,1024.6a.272.272,0,0,1-.219-.11q-.2-.269-.408-.534a.272.272,0,1,1,.427-.336q.214.271.418.546a.272.272,0,0,1-.218.434Z" transform="translate(-2114.269 -1014.112)" fill="#bdd0fb"/><path d="M1798.027,967.114a.268.268,0,0,1-.044,0,.272.272,0,0,1-.225-.312c.072-.449.159-.9.257-1.348a.272.272,0,0,1,.531.116c-.1.436-.18.879-.251,1.318A.272.272,0,0,1,1798.027,967.114Zm.581-2.649a.272.272,0,0,1-.262-.345c.122-.439.257-.88.4-1.312a.272.272,0,1,1,.515.175c-.143.422-.276.853-.4,1.282A.272.272,0,0,1,1798.608,964.465Zm.87-2.569a.277.277,0,0,1-.1-.02.272.272,0,0,1-.151-.354c.169-.421.353-.844.547-1.258a.272.272,0,0,1,.493.231c-.19.405-.37.819-.535,1.231A.272.272,0,0,1,1799.478,961.9Zm1.15-2.457a.272.272,0,0,1-.239-.4c.215-.4.445-.8.683-1.19a.272.272,0,1,1,.464.284c-.233.381-.458.773-.668,1.164A.272.272,0,0,1,1800.628,959.438Zm1.414-2.315a.267.267,0,0,1-.154-.048.272.272,0,0,1-.07-.378c.257-.374.529-.746.809-1.108a.272.272,0,0,1,.43.333c-.273.354-.539.718-.791,1.084A.273.273,0,0,1,1802.042,957.123Zm1.659-2.148a.272.272,0,0,1-.206-.45c.3-.345.608-.686.924-1.014a.272.272,0,1,1,.392.377c-.309.321-.613.654-.9.992A.272.272,0,0,1,1803.7,954.975Zm37.134-.159a.271.271,0,0,1-.2-.092c-.295-.335-.6-.666-.914-.982a.272.272,0,1,1,.388-.381c.318.324.633.661.934,1a.272.272,0,0,1-.2.452Zm-35.252-1.8a.272.272,0,0,1-.185-.471c.332-.309.678-.614,1.029-.906a.272.272,0,1,1,.348.418c-.344.286-.682.584-1.007.886A.273.273,0,0,1,1805.582,953.021Zm33.35-.138a.271.271,0,0,1-.183-.071c-.329-.3-.671-.595-1.016-.876a.272.272,0,0,1,.344-.422c.353.287.7.588,1.039.9a.272.272,0,0,1-.183.473Zm-31.265-1.6a.272.272,0,0,1-.163-.49c.365-.271.743-.536,1.124-.787a.272.272,0,1,1,.3.454c-.373.246-.742.5-1.1.769A.272.272,0,0,1,1807.667,951.287Zm29.163-.119a.271.271,0,0,1-.16-.052c-.362-.264-.734-.52-1.106-.761a.272.272,0,0,1,.3-.456c.38.246.761.508,1.131.778a.272.272,0,0,1-.161.492Zm-26.9-1.374a.272.272,0,0,1-.137-.507c.394-.23.8-.451,1.2-.657a.272.272,0,0,1,.247.485c-.4.2-.792.419-1.177.643A.272.272,0,0,1,1809.931,949.794Zm24.622-.1a.272.272,0,0,1-.135-.036c-.388-.223-.786-.436-1.182-.635a.272.272,0,1,1,.244-.486c.4.2.812.422,1.209.649a.272.272,0,0,1-.136.508Zm-22.207-1.13a.272.272,0,0,1-.11-.521c.415-.184.842-.359,1.269-.521a.272.272,0,1,1,.192.509c-.417.158-.835.329-1.241.509A.272.272,0,0,1,1812.346,948.561Zm19.782-.086a.271.271,0,0,1-.108-.023c-.411-.178-.83-.346-1.245-.5a.272.272,0,0,1,.188-.511c.425.157.854.329,1.274.512a.272.272,0,0,1-.109.522Zm-17.245-.873a.272.272,0,0,1-.082-.531c.434-.137.877-.264,1.319-.378a.272.272,0,0,1,.135.527c-.431.111-.865.235-1.29.37A.271.271,0,0,1,1814.883,947.6Zm14.7-.068a.268.268,0,0,1-.08-.012c-.425-.131-.86-.251-1.293-.359a.272.272,0,0,1,.131-.528c.443.11.888.234,1.322.367a.272.272,0,0,1-.08.532Zm-12.074-.607a.272.272,0,0,1-.053-.539c.446-.089.9-.167,1.352-.231a.272.272,0,1,1,.077.539c-.441.063-.886.139-1.322.226A.258.258,0,0,1,1817.509,946.927Zm9.44-.046a.264.264,0,0,1-.051-.005c-.436-.083-.882-.155-1.325-.214a.272.272,0,0,1,.072-.539c.452.06.908.134,1.354.219a.272.272,0,0,1-.051.539Zm-6.755-.338a.272.272,0,0,1-.023-.543c.453-.04.914-.068,1.369-.082a.268.268,0,0,1,.281.263.272.272,0,0,1-.263.28c-.445.015-.9.041-1.339.081Zm4.067-.02h-.021c-.446-.035-.9-.057-1.34-.067a.272.272,0,0,1,.006-.544h.006c.453.01.914.033,1.37.068a.272.272,0,0,1-.021.543Z" transform="translate(-1797.512 -945.911)" fill="#bdd0fb"/><path d="M1796.026,1128.744H1796a.272.272,0,0,1-.25-.292q.027-.342.063-.684a.272.272,0,0,1,.541.057q-.036.334-.061.669A.272.272,0,0,1,1796.026,1128.744Z" transform="translate(-1795.753 -1105.516)" fill="#bdd0fb"/></g></g></g><g transform="translate(187.136 197.482)"><g transform="translate(0 25.856)"><path d="M475.632,1062.854a9.01,9.01,0,0,1,17.067-5.782h0a9.649,9.649,0,0,0,5.409,5.8,11.464,11.464,0,0,1,6.444,6.911h0a10.774,10.774,0,0,0,6.733,6.74,13.049,13.049,0,1,1-16.559,16.542q-.186-.547-.32-1.1a13.46,13.46,0,0,0-6.427-8.5,11.508,11.508,0,0,1-5.814-9.984,7.544,7.544,0,0,0-3.2-6.159A8.967,8.967,0,0,1,475.632,1062.854Z" transform="translate(-475.153 -1050.95)" fill="#91b3fa"/><path d="M544.721,1126.089c1.984,3.264,4.2,6.407,6.5,9.471.578.764,1.15,1.533,1.749,2.281s1.174,1.516,1.789,2.251l1.825,2.221,1.873,2.182c2.527,2.881,5.116,5.711,7.841,8.4,1.336,1.373,2.741,2.677,4.129,4,.686.669,1.411,1.294,2.123,1.935l2.141,1.915.011.01a.488.488,0,1,1-.65.727l0,0-2.137-1.947c-.71-.651-1.433-1.288-2.117-1.966-1.383-1.341-2.783-2.664-4.114-4.058-2.714-2.734-5.289-5.6-7.8-8.519l-1.86-2.209-1.812-2.248c-.611-.744-1.182-1.519-1.775-2.277s-1.162-1.535-1.735-2.308c-2.282-3.1-4.471-6.266-6.448-9.587a.272.272,0,0,1,.466-.281Z" transform="translate(-535.844 -1116.862)" fill="#dce5fe"/><path d="M583.2,1124.662a.272.272,0,0,1-.223-.427c1.474-2.117,1.143-7.882,1.14-7.94a.272.272,0,0,1,.543-.033c.015.245.344,6.014-1.237,8.284A.271.271,0,0,1,583.2,1124.662Z" transform="translate(-569.873 -1108.123)" fill="#dce5fe"/><path d="M532.685,1172.652h-.006a18.131,18.131,0,0,1-6.894-1.59.272.272,0,1,1,.251-.482,17.9,17.9,0,0,0,6.655,1.529.272.272,0,0,1-.006.544Z" transform="translate(-519.521 -1156.056)" fill="#dce5fe"/><path d="M652.2,1203.162a.269.269,0,0,1-.116-.026.272.272,0,0,1-.13-.362c1.822-3.849.875-9.267.865-9.321a.272.272,0,1,1,.536-.1c.041.229.987,5.646-.908,9.651A.272.272,0,0,1,652.2,1203.162Z" transform="translate(-630.506 -1175.902)" fill="#dce5fe"/><path d="M583.641,1264.622a15.311,15.311,0,0,1-6.512-1.527.272.272,0,0,1,.231-.493,13.25,13.25,0,0,0,8.839,1.17.272.272,0,0,1,.163.519A9.766,9.766,0,0,1,583.641,1264.622Z" transform="translate(-564.634 -1236.932)" fill="#dce5fe"/><path d="M673.254,1373.012a14.147,14.147,0,0,1-5.024-.89.272.272,0,1,1,.193-.508,14.937,14.937,0,0,0,9.087.245.272.272,0,0,1,.174.515A14.967,14.967,0,0,1,673.254,1373.012Z" transform="translate(-644.68 -1332.741)" fill="#dce5fe"/><path d="M745.906,1307.474a.272.272,0,0,1-.236-.408,13.32,13.32,0,0,0,.81-8.893.272.272,0,0,1,.531-.117c1.226,5.568-.784,9.133-.87,9.282A.271.271,0,0,1,745.906,1307.474Z" transform="translate(-712.858 -1267.925)" fill="#dce5fe"/></g><g transform="translate(10.392)"><path d="M580.71,841.049a11.545,11.545,0,0,0-16.5,16.151h0a12.364,12.364,0,0,1,3.495,9.544,14.687,14.687,0,0,0,4.163,11.37h0a13.8,13.8,0,0,1,3.8,11.6,16.72,16.72,0,1,0,28.5-9.333q-.518-.529-1.07-1a17.248,17.248,0,0,1-5.993-12.273,14.748,14.748,0,0,0-8.039-12.431,9.665,9.665,0,0,1-5.184-7.226A11.491,11.491,0,0,0,580.71,841.049Z" transform="translate(-560.915 -837.58)" fill="#bdd0fb"/><path d="M659.668,929.09c1.329,2.088,2.548,4.227,3.75,6.381.588,1.083,1.194,2.157,1.757,3.254s1.149,2.181,1.693,3.287c2.21,4.406,4.281,8.884,6.18,13.435s3.693,9.15,5.259,13.829c.392,1.17.821,2.328,1.173,3.51l1.105,3.533c.386,1.173.7,2.366,1.041,3.553l1.006,3.564a.646.646,0,0,1-1.243.351l0-.01-.006-.022-.926-3.562c-.313-1.186-.6-2.38-.96-3.554-.691-2.355-1.362-4.717-2.148-7.044-1.484-4.682-3.2-9.287-5.015-13.854l-1.4-3.41-1.48-3.376-.371-.843-.388-.836-.776-1.672c-.508-1.119-1.054-2.219-1.593-3.324a144.117,144.117,0,0,0-7.073-12.921l0-.006a.247.247,0,0,1,.419-.264Z" transform="translate(-647.301 -917.9)" fill="#dce5fe"/><path d="M629.1,982.377c-3.572,0-9.206-3.275-9.46-3.423a.272.272,0,0,1,.275-.47c.065.038,6.486,3.771,9.784,3.31a.272.272,0,1,1,.075.539A4.866,4.866,0,0,1,629.1,982.377Z" transform="translate(-612.408 -961.377)" fill="#dce5fe"/><path d="M703.3,942.577a.272.272,0,0,1-.245-.39,23.04,23.04,0,0,0,2.119-8.525.272.272,0,0,1,.544-.006,23.138,23.138,0,0,1-2.172,8.767A.272.272,0,0,1,703.3,942.577Z" transform="translate(-685.807 -921.777)" fill="#dce5fe"/><path d="M680.72,1104.182h-.007c-5.651-.155-11.274-4.361-11.511-4.54a.272.272,0,0,1,.328-.434c.056.043,5.723,4.281,11.2,4.43a.272.272,0,0,1-.007.544Z" transform="translate(-655.985 -1067.456)" fill="#dce5fe"/><path d="M764.342,1056.947a.272.272,0,0,1-.195-.462c.036-.037,3.592-3.769,3.809-10.83a.268.268,0,0,1,.28-.264.272.272,0,0,1,.263.28c-.224,7.286-3.811,11.037-3.963,11.193A.271.271,0,0,1,764.342,1056.947Z" transform="translate(-739.452 -1020.21)" fill="#dce5fe"/><path d="M826.2,1223.944a.272.272,0,0,1-.19-.466,19.214,19.214,0,0,0,5.009-10.572.272.272,0,0,1,.541.058,19.789,19.789,0,0,1-5.169,10.9A.271.271,0,0,1,826.2,1223.944Z" transform="translate(-793.811 -1167.211)" fill="#dce5fe"/><path d="M745.574,1271.335a17.765,17.765,0,0,1-10.82-4.375.272.272,0,1,1,.345-.421c5.467,4.477,10.632,4.249,10.684,4.247a.268.268,0,0,1,.286.256.272.272,0,0,1-.257.286C745.789,1271.331,745.708,1271.335,745.574,1271.335Z" transform="translate(-713.602 -1214.505)" fill="#dce5fe"/></g></g><g transform="translate(310.201 179.717)"><g transform="translate(10.448 42.621)"><path d="M1624.814,1055.5a9.69,9.69,0,1,0-18.355-6.219h0a10.377,10.377,0,0,1-5.817,6.24,12.327,12.327,0,0,0-6.93,7.433h0a11.586,11.586,0,0,1-7.24,7.248,14.033,14.033,0,1,0,17.808,17.79q.2-.589.344-1.182a14.476,14.476,0,0,1,6.911-9.146,12.377,12.377,0,0,0,6.252-10.737,8.113,8.113,0,0,1,3.44-6.624A9.644,9.644,0,0,0,1624.814,1055.5Z" transform="translate(-1576.951 -1042.695)" fill="#bdd0fb"/><path d="M1663.063,1123.933c-2.126,3.57-4.482,6.971-6.937,10.306-.617.831-1.227,1.667-1.866,2.481s-1.253,1.648-1.91,2.448l-1.949,2.417-2,2.374c-2.7,3.136-5.47,6.219-8.39,9.158-1.431,1.5-2.937,2.92-4.424,4.361-.736.73-1.514,1.414-2.277,2.114l-2.3,2.092a.488.488,0,0,1-.657-.722l0,0,.011-.01,2.3-2.06c.765-.69,1.545-1.363,2.283-2.082,1.492-1.42,3-2.823,4.439-4.3,2.93-2.9,5.714-5.943,8.431-9.043l2.013-2.347,1.962-2.39c.661-.791,1.281-1.615,1.923-2.422s1.259-1.632,1.881-2.455c2.471-3.3,4.855-6.677,6.988-10.19l.005-.008a.272.272,0,0,1,.466.28Z" transform="translate(-1623.743 -1113.728)" fill="#dce5fe"/><path d="M1846.33,1122.1a.272.272,0,0,1-.224-.117c-1.7-2.435-1.342-8.633-1.326-8.9a.272.272,0,0,1,.543.033c0,.063-.358,6.271,1.229,8.552a.272.272,0,0,1-.223.427Z" transform="translate(-1812.289 -1104.33)" fill="#dce5fe"/><path d="M1857.38,1173.7a.272.272,0,0,1-.006-.544,19.289,19.289,0,0,0,7.167-1.646.272.272,0,1,1,.251.482,19.46,19.46,0,0,1-7.406,1.708Z" transform="translate(-1823.16 -1155.878)" fill="#dce5fe"/><path d="M1772.688,1206.515a.272.272,0,0,1-.246-.155c-2.036-4.3-1.02-10.121-.975-10.367a.272.272,0,0,1,.536.1c-.01.059-1.028,5.9.932,10.037a.272.272,0,0,1-.246.388Z" transform="translate(-1747.638 -1177.22)" fill="#dce5fe"/><path d="M1784.945,1272.612a10.474,10.474,0,0,1-2.921-.355.272.272,0,0,1,.163-.519,14.276,14.276,0,0,0,9.521-1.259.272.272,0,0,1,.231.492A16.447,16.447,0,0,1,1784.945,1272.612Z" transform="translate(-1757.007 -1242.854)" fill="#dce5fe"/><path d="M1686.748,1389.175a16.065,16.065,0,0,1-4.757-.685.272.272,0,0,1,.174-.515,16.084,16.084,0,0,0,9.785-.264.272.272,0,1,1,.193.508A15.189,15.189,0,0,1,1686.748,1389.175Z" transform="translate(-1669.1 -1345.887)" fill="#dce5fe"/><path d="M1671.339,1318.7a.272.272,0,0,1-.236-.136c-.092-.16-2.25-3.987-.933-9.967a.272.272,0,0,1,.531.117,14.293,14.293,0,0,0,.873,9.578.272.272,0,0,1-.235.408Z" transform="translate(-1658.501 -1276.186)" fill="#dce5fe"/></g><g transform="translate(0 0)"><path d="M1521.09,694.7a12.416,12.416,0,0,1,17.746,17.369h0a13.3,13.3,0,0,0-3.759,10.263,15.794,15.794,0,0,1-4.477,12.227h0a14.846,14.846,0,0,0-4.086,12.475A17.981,17.981,0,1,1,1495.862,737q.557-.569,1.151-1.079a18.547,18.547,0,0,0,6.445-13.2,15.86,15.86,0,0,1,8.645-13.368,10.394,10.394,0,0,0,5.575-7.771A12.358,12.358,0,0,1,1521.09,694.7Z" transform="translate(-1490.731 -690.973)" fill="#bdd0fb"/><path d="M1628.682,789.8a155.451,155.451,0,0,0-7.611,13.9c-.58,1.188-1.168,2.371-1.714,3.574l-.835,1.8-.417.9-.4.907-1.593,3.63-1.505,3.667c-1.953,4.91-3.8,9.862-5.4,14.9-.847,2.5-1.57,5.043-2.315,7.575-.388,1.262-.7,2.546-1.036,3.822l-1,3.831,0,.019a.646.646,0,1,1-1.25-.326l0-.012,1.079-3.833c.365-1.276.7-2.56,1.116-3.821l1.186-3.8c.378-1.272.838-2.517,1.259-3.775,1.681-5.032,3.614-9.977,5.646-14.873l1.563-3.657,1.633-3.626.409-.906.427-.9.854-1.8c.56-1.2,1.161-2.383,1.754-3.568s1.2-2.362,1.819-3.535,1.257-2.334,1.888-3.5c1.292-2.316,2.6-4.617,4.031-6.862a.247.247,0,0,1,.418.264Z" transform="translate(-1589.904 -777.488)" fill="#dce5fe"/><path d="M1761.854,846.819a5.235,5.235,0,0,1-.723-.047.272.272,0,0,1,.075-.539c3.553.5,10.465-3.521,10.535-3.562a.272.272,0,0,1,.275.469C1771.744,843.3,1765.689,846.819,1761.854,846.819Z" transform="translate(-1728.159 -824.256)" fill="#dce5fe"/><path d="M1742.995,804.02a.272.272,0,0,1-.245-.154c-.1-.2-2.38-5.007-2.334-9.418a.272.272,0,0,1,.272-.269h0a.272.272,0,0,1,.269.275c-.044,4.283,2.257,9.129,2.28,9.177a.272.272,0,0,1-.245.39Z" transform="translate(-1710.159 -781.672)" fill="#dce5fe"/><path d="M1695.46,977.812a.272.272,0,0,1-.007-.544c5.894-.161,11.993-4.722,12.054-4.769a.272.272,0,0,1,.328.434c-.255.192-6.3,4.712-12.367,4.879Z" transform="translate(-1670.413 -938.336)" fill="#dce5fe"/><path d="M1663.778,927.015a.271.271,0,0,1-.194-.082c-.164-.168-4.016-4.2-4.257-12.024a.272.272,0,1,1,.544-.016c.234,7.6,4.064,11.62,4.1,11.66a.272.272,0,0,1-.195.462Z" transform="translate(-1638.897 -887.527)" fill="#dce5fe"/><path d="M1587.878,1106.609a.271.271,0,0,1-.19-.078,21.254,21.254,0,0,1-5.553-11.713.272.272,0,1,1,.541-.058,20.651,20.651,0,0,0,5.392,11.382.272.272,0,0,1-.19.466Z" transform="translate(-1571.058 -1045.618)" fill="#dce5fe"/><path d="M1629.483,1157.576c-.144,0-.231,0-.256-.006a.272.272,0,0,1-.257-.286.282.282,0,0,1,.286-.257c.055.006,5.628.239,11.5-4.572a.272.272,0,0,1,.345.421C1635.708,1157.295,1630.672,1157.576,1629.483,1157.576Z" transform="translate(-1612.218 -1096.48)" fill="#dce5fe"/></g></g><g transform="translate(222.272 123.066)"><g transform="translate(0 0)"><path d="M775.784,223.473l91.022,1c5.032.055,8.978,4.4,8.975,9.851L875.7,369.253a6.9,6.9,0,0,1-6.744,6.922l-97.585.431a6.336,6.336,0,0,1-6.268-6.4V234.981C765.1,228.574,769.884,223.408,775.784,223.473Z" transform="translate(-765.103 -223.472)" fill="url(#b)"/><path d="M945.53,330.211H869.02a5.644,5.644,0,0,0-5.7,5.659V447.226a5.644,5.644,0,0,0,5.7,5.659h76.51a5.83,5.83,0,0,0,5.917-5.659V335.87A5.83,5.83,0,0,0,945.53,330.211Z" transform="translate(-851.416 -317.277)" fill="#fff"/></g><g transform="translate(-121.564 -38.824)"><g transform="translate(158.658 122.477)"><path d="M185.816,312.218,168,299.732a.22.22,0,0,0-.309.3L185.532,326.8a1.1,1.1,0,0,0,1.83,0l17.846-26.766a.22.22,0,0,0-.309-.3l-17.82,12.487a1.1,1.1,0,0,1-1.262,0Z" transform="translate(-167.648 -299.69)" fill="#b1abb5"/></g><g transform="translate(156.363 74.578)"><path d="M199.05,111.492,178.918,75.145a1.1,1.1,0,0,0-1.924,0l-20.132,36.347Z" transform="translate(-156.862 -74.578)" fill="#b1abb5"/></g><g transform="translate(177.457 74.578)"><path d="M256,111.492h21.094L256.962,75.145a1.089,1.089,0,0,0-.962-.567Z" transform="translate(-256 -74.578)" fill="#786e79"/></g><g transform="translate(156.228 96.806)"><path d="M176.826,209.255,156.7,195.15a1.1,1.1,0,0,1,0-1.8l20.129-14.1a1.1,1.1,0,0,1,1.262,0l20.129,14.1a1.1,1.1,0,0,1,0,1.8l-20.129,14.1A1.1,1.1,0,0,1,176.826,209.255Z" transform="translate(-156.228 -179.045)" fill="#786e79"/></g><g transform="translate(177.457 96.806)"><path d="M256.631,209.255l20.129-14.1a1.1,1.1,0,0,0,0-1.8l-20.129-14.1a1.1,1.1,0,0,0-.631-.2v30.409A1.1,1.1,0,0,0,256.631,209.255Z" transform="translate(-256 -179.045)" fill="#554e57"/></g><g transform="translate(177.458 74.578)"><path d="M271.224,109.973a1.1,1.1,0,0,1-.275,1.519h6.146L256.963,75.145a1.089,1.089,0,0,0-.962-.567v7.911Z" transform="translate(-256.001 -74.578)" fill="#554e57"/></g><g transform="translate(177.457 122.477)"><path d="M256.915,326.8l17.846-26.766a.22.22,0,0,0-.309-.3l-17.82,12.487a1.1,1.1,0,0,1-.631.2v14.872a1.09,1.09,0,0,0,.915-.49Z" transform="translate(-256 -299.689)" fill="#554e57"/></g><g transform="translate(177.457 105.49)"><path d="M276.76,225.477l-8.021-5.62,2.483,4.483a1.1,1.1,0,0,1-.277,1.521L256,236.334v5.249a1.1,1.1,0,0,0,.631-.2l20.129-14.1a1.1,1.1,0,0,0,0-1.8Z" transform="translate(-256 -219.857)" fill="#453e43"/></g><g transform="translate(177.457 122.477)"><path d="M274.451,299.731l-9.413,6.6L256,319.883v7.406a1.091,1.091,0,0,0,.915-.49l17.846-26.766A.22.22,0,0,0,274.451,299.731Z" transform="translate(-256 -299.689)" fill="#453e43"/></g></g></g><g transform="translate(167.851 123.862)"><path d="M353.523,235.406v-.062h-.074a22.778,22.778,0,0,0-29.239,0l-.077,0v.063a22.832,22.832,0,1,0,29.388-.005Zm5.715,24.989-4.868-.043a29.07,29.07,0,0,0,.993-7.113l5.064-.032.148,0A21.639,21.639,0,0,1,359.238,260.4Zm-42.147-7.182,4.049.03a30.324,30.324,0,0,0,.251,3.442,27.879,27.879,0,0,0,.745,3.678l-3.18.02-.525.019A21.633,21.633,0,0,1,317.091,253.214Zm1.554-8.428.075.075,3.547.029c-.033.111-.069.219-.1.33a27.8,27.8,0,0,0-.774,3.778,30.179,30.179,0,0,0-.244,3.012l-3.918.023-.127,0A21.6,21.6,0,0,1,318.645,244.785Zm34.229,15.56-7.7-.023c.229-2.224.348-4.558.364-7.038l4.089-.008,4.267-.027a27.566,27.566,0,0,1-.944,6.823C352.929,260.164,352.9,260.254,352.874,260.345Zm.085-14.736a27.461,27.461,0,0,1,.932,6.384l-8.356-.023a65.2,65.2,0,0,0-.46-7.038l3.693-.008,3.982-.028C352.821,245.132,352.893,245.369,352.958,245.609ZM342.237,268.3h-6.7a9.615,9.615,0,0,1-.379-1.2c-.22-.888-.412-1.713-.587-2.721-.16-.921-.3-1.814-.414-2.789l4.67.037,4.787,0q-.171,1.419-.4,2.75c-.175,1.014-.365,1.747-.581,2.629A9.321,9.321,0,0,1,342.237,268.3Zm-3.408-7.993-4.811.009c-.051-.516-.1-1.042-.137-1.582-.131-1.766-.2-3.6-.2-5.447l5.15.013,5.288-.01c-.009,1.821-.078,3.619-.21,5.352-.043.575-.093,1.132-.147,1.679Zm-4.814-15.372,4.817.013,4.85-.01c.08.687.153,1.387.213,2.117.133,1.6.2,3.247.222,4.914l-5.286-.015-5.148.009c.012-1.744.064-3.335.159-4.832C333.888,246.369,333.948,245.644,334.015,244.931Zm7.416-9.672-2.6-.013-2.9.006c.1-.276.208-.534.316-.778a9.259,9.259,0,0,1,.636-1.21,4.083,4.083,0,0,1,.811-.969,1.8,1.8,0,0,1,.461-.287,1.125,1.125,0,0,1,.43-.088h.032a1.212,1.212,0,0,1,.467.117,2.165,2.165,0,0,1,.474.307,4.635,4.635,0,0,1,.843.966A11.354,11.354,0,0,1,341.431,235.259Zm-5.943,1.327,3.345.007,3.1-.009c.2.6.4,1.231.581,1.926.235.892.44,1.81.627,2.809.14.746.26,1.511.37,2.294l-4.683-.014-4.677.009c.087-.762.183-1.509.3-2.237.158-1.016.331-1.943.532-2.832C335.139,237.831,335.307,237.188,335.487,236.586Zm7.332-1.32a13.56,13.56,0,0,0-1.387-2.669c-.1-.143-.2-.274-.3-.4.211.053.423.1.632.168a13.27,13.27,0,0,1,3.229,1.5,15.03,15.03,0,0,1,1.862,1.421Zm-6.985-2.684a10.554,10.554,0,0,0-.739,1.367c-.182.4-.354.826-.527,1.3h-.31c-.828,0-1.657,0-2.484.009l-2.084.016a14.953,14.953,0,0,1,1.844-1.409,13.29,13.29,0,0,1,3.228-1.5,12.263,12.263,0,0,1,1.484-.349A6.849,6.849,0,0,0,335.834,232.582Zm-1.28,37.412a1.511,1.511,0,0,0,.185.506,13.3,13.3,0,0,0,1.362,2.752c.107.156.213.3.318.429a12.255,12.255,0,0,1-1.652-.384,13.294,13.294,0,0,1-3.225-1.486,16.925,16.925,0,0,1-2.3-1.816Zm4.171,3.821a1.149,1.149,0,0,1-.258-.071,1.835,1.835,0,0,1-.456-.28,4.219,4.219,0,0,1-.824-.951,11.943,11.943,0,0,1-1.2-2.482c-.006-.015-.011-.037-.017-.037h5.844a12.48,12.48,0,0,1-1.17,2.456,4.442,4.442,0,0,1-.815.971,2,2,0,0,1-.457.3,1.312,1.312,0,0,1-.216.076C339.011,273.809,338.868,273.809,338.724,273.815Zm3.014-.654a13.7,13.7,0,0,0,1.339-2.751c.052-.139.1-.416.151-.416H347.3a17.12,17.12,0,0,1-2.309,1.82,13.343,13.343,0,0,1-3.229,1.49c-.048.015-.1.022-.144.036C341.656,273.281,341.7,273.224,341.738,273.161Zm3.16-29.545q-.19-1.3-.435-2.554c-.2-1.033-.427-1.98-.68-2.9-.155-.561-.316-1.086-.483-1.585l2.587-.008,2.255-.018a19.222,19.222,0,0,1,1.878,2.42,22.572,22.572,0,0,1,2.311,4.666Zm-13.127-7.043c.788.007,1.577.008,2.365.009-.153.52-.3,1.067-.439,1.656-.216.916-.406,1.869-.58,2.916-.132.8-.247,1.616-.35,2.455l-3.876.007-4.68.03a22.511,22.511,0,0,1,2.305-4.664,19.182,19.182,0,0,1,1.885-2.434Zm-7.847,8.33,8.7.024c-.07.683-.135,1.379-.188,2.1-.071.964-.126,1.957-.163,2.95-.021.6-.042,1.278-.051,1.981l-4.189.007-5.373.031c.029-.946.1-1.886.222-2.805a27,27,0,0,1,.707-3.58c.066-.24.137-.477.208-.713Zm-.334,15.165a26.941,26.941,0,0,1-.709-3.58,28.777,28.777,0,0,1-.232-3.233l9.568.025c.017,1.887.1,3.757.247,5.562.041.5.087.991.137,1.473l-3.709.007-5.218.033C323.648,260.258,323.617,260.165,323.591,260.068Zm9.163,1.564c.132,1.06.286,2.085.467,3.083.19,1.042.4,1.8.63,2.715.095.369.192.866.292.866h-6.124a6.355,6.355,0,0,1-1.491-1.793,21.953,21.953,0,0,1-2.458-4.991ZM343.64,268.3c.108-.34.213-.554.315-.956.232-.918.436-1.832.624-2.873.174-.977.322-1.946.449-2.965h3.741l3.711.038a21.517,21.517,0,0,1-2.467,4.939,6.55,6.55,0,0,1-1.489,1.817ZM355.352,252a28.927,28.927,0,0,0-1.016-6.775c-.032-.114-.069-.225-.1-.338l4.465-.031.345-.009a21.6,21.6,0,0,1,1.518,7.193ZM350.7,235.306l-1.925-.01c-.024-.025-.048-.052-.072-.077a17.232,17.232,0,0,0-3.025-2.44,14.9,14.9,0,0,0-2.349-1.194,21.65,21.65,0,0,1,8.335,3.733Zm-19.855-2.532a17.206,17.206,0,0,0-3.028,2.438c-.027.027-.052.056-.079.083l-.743.006-.983.012a21.714,21.714,0,0,1,5.494-2.923C331.282,232.513,331.06,232.638,330.844,232.774Zm-5.41,37.221h1.892c.158.34.317.333.479.5a17.225,17.225,0,0,0,3.03,2.437c.26.163.523.312.789.458a21.705,21.705,0,0,1-6.2-3.4S325.43,269.994,325.434,269.994Zm20.253,2.923a17.219,17.219,0,0,0,3.025-2.434c.16-.161.316-.15.471-.489h3.058a21.768,21.768,0,0,1-9.055,4.195A14.967,14.967,0,0,0,345.687,272.917Zm12.857-29.232-4.711-.041a24.049,24.049,0,0,0-2.686-5.423,20.957,20.957,0,0,0-1.255-1.682l.7-.006c.785-.008,1.57-.017,2.345-.03l.2-.005A21.862,21.862,0,0,1,358.544,243.686Zm-34.022-7.178.193,0c.636.01,1.271.016,1.907.023a20.912,20.912,0,0,0-1.256,1.68,24.09,24.09,0,0,0-2.7,5.443l-3.543.023A21.864,21.864,0,0,1,324.522,236.508ZM318.9,261.567l3.608.029a22.919,22.919,0,0,0,2.845,5.688,8.808,8.808,0,0,0,.878,1.012h-.8c-.355,0-.644.483-.644.839a1.788,1.788,0,0,0,.018.242A21.519,21.519,0,0,1,318.9,261.567Zm34.828,6.93c-.028,0-.055-.2-.084-.2h-3.373a8.651,8.651,0,0,0,.882-1.021,23.546,23.546,0,0,0,2.837-5.779l4.707.016.065-.074A21.545,21.545,0,0,1,353.732,268.5Z" transform="translate(-316 -230.034)" fill="#91b3fa" opacity="0.73"/></g><g transform="translate(147.423 175.389)"><path d="M198.693,659.082h-49.36a1.91,1.91,0,0,1-1.91-1.91h0a1.91,1.91,0,0,1,1.91-1.91h49.36a1.91,1.91,0,0,1,1.91,1.91h0A1.91,1.91,0,0,1,198.693,659.082Z" transform="translate(-147.423 -655.262)" fill="#bdd0fb"/><path d="M247.638,720.825h-49.36a1.91,1.91,0,0,1-1.91-1.91h0a1.91,1.91,0,0,1,1.91-1.91h49.36a1.91,1.91,0,0,1,1.91,1.91h0A1.91,1.91,0,0,1,247.638,720.825Z" transform="translate(-190.437 -709.523)" fill="#bdd0fb"/><path d="M233.6,844.311H198.278a1.91,1.91,0,0,1-1.91-1.91h0a1.91,1.91,0,0,1,1.91-1.91H233.6a1.91,1.91,0,0,1,1.91,1.91h0A1.91,1.91,0,0,1,233.6,844.311Z" transform="translate(-190.437 -818.046)" fill="#bdd0fb"/><path d="M293.318,782.568h-49.36a1.91,1.91,0,0,1-1.91-1.91h0a1.91,1.91,0,0,1,1.91-1.91h49.36a1.91,1.91,0,0,1,1.91,1.91h0A1.91,1.91,0,0,1,293.318,782.568Z" transform="translate(-230.582 -763.784)" fill="#bdd0fb"/></g><g transform="translate(155.867 191.224)"><path d="M227.065,903.552s-9.025,5-9.771,13.46-.062,43.579,18.034,52.223,42.05,6.651,51.219,5.706,14.253-7.176,15.388-11.467,2.97-20.273-6.676-25.428-19.776-13.054-29.9-20.745S237.889,897.056,227.065,903.552Z" transform="translate(-217.108 -887.714)" fill="url(#c)"/><path d="M818.749,1225.366s-2.436.129-2.734,5.14a28.941,28.941,0,0,0,13.277,6.268c.573.09-.8-3.91-1.007-4.452C827.3,1229.744,824.209,1228.083,818.749,1225.366Z" transform="translate(-743.441 -1172.117)" fill="url(#d)"/><path d="M608.827,1040.672h2.445a6.246,6.246,0,0,0,4.488-1.9c4.049-4.178,14.168-14.013,22.167-16.723a2.7,2.7,0,0,1,3.305,1.429c1.67,3.563,4.013,11.854-1.535,24.4a2.5,2.5,0,0,1-3.623,1.137,2.049,2.049,0,0,1-.779-.951l.61-14.667s-13.457,11.769-15.8,14.041S605.881,1048.329,608.827,1040.672Z" transform="translate(-560.95 -993.316)" fill="url(#e)"/><path d="M933.695,1445.165a19.324,19.324,0,0,0-10.54-4.613l-1.676,1.025a18.255,18.255,0,0,0,3.02,3.241,21.1,21.1,0,0,0,6.86,2.759C933.592,1447.875,933.922,1446.526,933.695,1445.165Z" transform="translate(-836.125 -1361.229)" fill="url(#f)"/><path d="M828.285,1264.047c-1.327.429-1.91,2.309-5.278,1.066a29.811,29.811,0,0,1-6.925-3.648c-.028.242-.051.5-.067.766,0,0,5.955,5.665,13.585,6.87a.759.759,0,0,0,.82-1.023A19.159,19.159,0,0,0,828.285,1264.047Z" transform="translate(-743.441 -1203.842)" fill="url(#g)"/><path d="M957.222,1477.713a17.76,17.76,0,0,0-1.623-1.612c.227,1.36-.1,2.709-2.335,2.412a21.1,21.1,0,0,1-6.86-2.759,14.832,14.832,0,0,0,9.987,3.833A1.132,1.132,0,0,0,957.222,1477.713Z" transform="translate(-858.03 -1392.164)" fill="url(#h)"/><path d="M590.572,1036.827s3.953,11.386,11.658,2.72l.734-.326h0l5.523-3.775-.615,2.186a4.087,4.087,0,0,1-2.379,2.672l-.727.3c-1.384,2.877-4.351,7.238-8.919,8.065-6.856,1.241-10.372-8.022-10.372-8.022Z" transform="translate(-540.836 -1005.211)" fill="url(#i)"/><path d="M538.772,1207.432l24.07.261s13.746,11.373,16.239,28.714c0,0,.414,1.276-2.071,1.494a47.709,47.709,0,0,1-13.729-15.024c-6.644-11.766-19.808-6.47-19.808-6.47-4.325-3.118-10.437-3.753-15.041-4.792Z" transform="translate(-490.707 -1156.357)" fill="url(#j)"/><path d="M429.683,976.231a69.359,69.359,0,0,1-3.58-15.792,34.015,34.015,0,0,1,3.5-2.652.974.974,0,0,0,.38-1.263c-.991-2.052-6.981-10.11-7.43-10.222-2.439-.609-12.442-5.365-19.488,4.272-3.024,4.136.6,16.867,14.317,30.052l2.83.541Z" transform="translate(-379.661 -925.368)" fill="url(#k)"/><path d="M483.6,902.584l-1.791,5.974a.657.657,0,0,0,.255.732,6.673,6.673,0,0,0,6.209.624.974.974,0,0,0,.627-.837l.424-5.2Z" transform="translate(-449.712 -888.449)" fill="url(#l)"/><g transform="translate(29.044 0)"><path d="M497.494,833.042s-.881,6.193-3.26,8.1-7.014.47-8.58-4.2l3.119-7.983Z" transform="translate(-482.157 -823.746)" fill="url(#m)"/><path d="M463.056,796.316a.306.306,0,0,0,.4-.246,8.008,8.008,0,0,1,.734-2.474s-.227-.812,2.053.415,5.706,3.031,7.722,1.957c1.966-1.047,3.957-6.315-1.238-5.339a.307.307,0,0,1-.365-.321,3.161,3.161,0,0,0-2.039-3.5,2.9,2.9,0,0,0-3.347.768.3.3,0,0,1-.477-.008,3.536,3.536,0,0,0-4.362-1.313c-1.862.821-2.152,1.968-2.121,2.682a.306.306,0,0,1-.436.292,1.84,1.84,0,0,0-2.366.7c-1.215,1.522.521,2.842,1.042,3.188a.307.307,0,0,1,.139.253c0,.792.128,4.244,1.859,6.192a.309.309,0,0,0,.514-.089L462.1,796.3a.308.308,0,0,1,.379-.174Z" transform="translate(-456.79 -785.938)" fill="url(#n)"/><path d="M490.607,859.117s-.814-3.314-2.05-2.238.322,3.444,1.738,3.9Z" transform="translate(-484.313 -848.094)" fill="url(#o)"/></g><path d="M588.66,1013.026h0a.228.228,0,0,1-.227-.229,36.147,36.147,0,0,0-1.377-8.333.228.228,0,0,1,.438-.128,36.679,36.679,0,0,1,1.4,8.463A.228.228,0,0,1,588.66,1013.026Z" transform="translate(-542.218 -977.727)" fill="url(#p)"/><path d="M502.357,1032.757a.228.228,0,0,1-.209-.135c-.1-.227-2.472-5.6-2.911-9.088a.228.228,0,0,1,.2-.255.225.225,0,0,1,.255.2c.43,3.421,2.851,8.9,2.876,8.959a.228.228,0,0,1-.208.321Z" transform="translate(-465.048 -994.517)" fill="url(#p)"/><path d="M420.655,1067.893l-.146-.112c-4.692-3.605-6.333-10.723-6.349-10.795a.228.228,0,1,1,.445-.1c.016.069,1.589,6.882,6.037,10.42l.678-.576a.228.228,0,1,1,.3.347Z" transform="translate(-390.277 -1023.897)" fill="url(#p)"/><path d="M730.417,1009.774l.387.531a.565.565,0,0,1-.138.8l-8.7,5.943a.565.565,0,0,1-.732-.081h0a.565.565,0,0,1,.066-.832l8.312-6.474A.565.565,0,0,1,730.417,1009.774Z" transform="translate(-660.013 -982.446)" fill="url(#s)"/><path d="M693.988,1153.385a.917.917,0,0,1,.761.972c-.01,1.694-.308,5.214-2.552,5.9-2.8.851-5.987-.5-5.235-6.278a1.109,1.109,0,0,1,1.1-1.065Z" transform="translate(-629.929 -1108.439)" fill="url(#t)"/><path d="M508.091,1114.084s-14.563,0-21.961-11.493l-4.346,3.974s8.7,14.9,25.076,9.318c0,0,3.782.781,5.913.189a3.52,3.52,0,0,0,2.186-2.277.636.636,0,0,0-.805-.825A16.629,16.629,0,0,1,508.091,1114.084Z" transform="translate(-449.711 -1064.22)" fill="url(#u)"/><path d="M671.79,1158.7s-.884-2.384-2.4-.655.947,3.054,2.4,3.243v-.628s-1.7-.76-1.479-1.77,1.479.252,1.479.252Z" transform="translate(-614.167 -1112.402)" fill="url(#t)"/><path d="M719.515,1070.779a3.825,3.825,0,0,0-1.407.763,2.383,2.383,0,0,0-.785,1.339,1.807,1.807,0,0,0,.339,1.482,6.966,6.966,0,0,0,1.24,1.11,3.109,3.109,0,0,1,1.066,1.373,1.411,1.411,0,0,1,.015.891,1.49,1.49,0,0,1-.526.707,9.294,9.294,0,0,1-1.524.778,2.572,2.572,0,0,0-.674.5,1.165,1.165,0,0,0-.335.749.011.011,0,0,1-.012.011.012.012,0,0,1-.011-.012,1.2,1.2,0,0,1,.321-.782,2.64,2.64,0,0,1,.674-.531,9.312,9.312,0,0,0,1.479-.813,1.347,1.347,0,0,0,.457-.652,1.238,1.238,0,0,0-.04-.782,2.905,2.905,0,0,0-1.038-1.245,7.131,7.131,0,0,1-1.324-1.118,2.134,2.134,0,0,1-.45-1.723,2.76,2.76,0,0,1,.856-1.575,4.254,4.254,0,0,1,1.537-.9.228.228,0,1,1,.15.431Z" transform="translate(-656.338 -1035.871)" fill="url(#t)"/><path d="M705.857,1106.378c.17.43.688.726,1.012,1.264a1.15,1.15,0,0,1,.145.949,1.435,1.435,0,0,1-.6.714c-.494.324-1.048.465-1.309.887a.914.914,0,0,0,.368,1.244.112.112,0,0,1-.093.2,1.164,1.164,0,0,1-.518-1.592c.336-.559.958-.721,1.357-1.022a1.089,1.089,0,0,0,.439-.544.766.766,0,0,0-.132-.633c-.247-.419-.791-.684-1.087-1.285a.228.228,0,1,1,.408-.2A.181.181,0,0,1,705.857,1106.378Z" transform="translate(-645.638 -1067.421)" fill="url(#t)"/></g><g transform="translate(307.81 185.196)"><g transform="translate(54.528 60.115)"><rect width="2.105" height="22.768" transform="translate(10.175 5.102)" fill="url(#y)"/><path d="M1.37,0h15.7a1.37,1.37,0,0,1,1.37,1.37v0a0,0,0,0,1,0,0H0a0,0,0,0,1,0,0v0A1.37,1.37,0,0,1,1.37,0Z" transform="translate(2.008 26.938)" fill="url(#z)"/><path d="M3.288,0H19.9a3.288,3.288,0,0,1,3.288,3.288v0A3.288,3.288,0,0,1,19.9,6.575H3.288A3.288,3.288,0,0,1,0,3.288v0A3.288,3.288,0,0,1,3.288,0Z" fill="url(#aa)"/></g><g transform="translate(23.023 45.759)"><path d="M1831.473,1149.1a18.329,18.329,0,0,0-6.646,2.837,1.753,1.753,0,0,0-.774,1.676,74.324,74.324,0,0,0,7.864,24.681,2.656,2.656,0,0,1,.255,1.822l-.992,4.617-1.84,1.725h4.739l3.156-8.539-1.349-.427a2.553,2.553,0,0,1-1.783-2.39l-.158-9.16a10.422,10.422,0,0,0-2.5-6.9l7.568-.368Z" transform="translate(-1804.282 -1144.821)" fill="url(#ab)"/><path d="M1852.318,1393.039c-.431.565,4.645,1.31,7.21.074,0,0,3.555-6.186,3.555-9.371,0,0-.282-.65-2.37-.5,0,0-1.194,7.324-2.454,8.145s-3.527.083-3.527.083A7.423,7.423,0,0,0,1852.318,1393.039Z" transform="translate(-1829.112 -1350.573)" fill="url(#ac)"/><path d="M1710.577,1167.7c-.04-.07-8.149-.975-8.149-.975a18.744,18.744,0,0,1-.564,5.859c-.829,3.394-12.734,18.1-12.734,18.1l1.248,3.957a20.081,20.081,0,0,1-11.391.685l7.736-4.642s7.24-24.672,11.674-29.073l8.128-2.812Z" transform="translate(-1676.807 -1153.348)" fill="url(#ad)"/><path d="M1870.122,1113.809s4.671,6.948,5.055,10.118-1.28,4.457-6.181,4.67-17.987.209-17.987.209l-11.168-9.545s8.139-2.9,10.255-3.725S1870.122,1113.809,1870.122,1113.809Z" transform="translate(-1818.168 -1113.809)" fill="url(#ae)"/><path d="M1674.094,1443.586a2.286,2.286,0,0,1,.436,2.75s-10.646,1.887-13.536,1.031c0,0,.6-1.37,3.855-2.929l-.24.184a.389.389,0,0,0,.257.7C1667.01,1445.2,1671.448,1444.8,1674.094,1443.586Z" transform="translate(-1660.994 -1403.625)" fill="url(#af)"/></g><g transform="translate(51.26 0)"><path d="M1915.471,923.555a106.638,106.638,0,0,1-8.118-8.611,7.279,7.279,0,0,1-1.232-6.551,90.446,90.446,0,0,1,3.593-9.049c.3-1.018,6.4-.975,6.4-.975s12,7.79,16.719,20.986l-5.3,1.649a61.914,61.914,0,0,0-6.23-8.6s5.358,7.078,5.547,9.976Z" transform="translate(-1904.388 -878.716)" fill="url(#ag)"/><path d="M1931.881,853.522c.064.212,1.656,5.489,1.78,5.6s3.491.291,5.076-.793l-2.688-5.628Z" transform="translate(-1927.293 -838.581)" fill="url(#ah)"/><path d="M1911.708,766.756s-2.874,1.214-4.828,5.367-.495,6.071,1.338,6.334a8.58,8.58,0,0,0,7.474-2.46C1918.591,773.314,1915.444,765.317,1911.708,766.756Z" transform="translate(-1904.505 -762.901)" fill="url(#ai)"/><path d="M1933.393,747.065s2.168-6.076-3.219-6.148l-1.268.886s-1.977-3.369,1.268-4.977a6.9,6.9,0,0,1,9.466,4.195c1.38,4.371.572,7.193-1.725,9.284s-3.243-.28-3.243-.28,1.251-1.956.742-3-1.684.217-1.684.217Z" transform="translate(-1924.155 -736.186)" fill="url(#aj)"/><path d="M1975.241,815.762s1.1-3.13,2.559-1.883-1.188,2.891-2.226,3.424Z" transform="translate(-1965.399 -804.206)" fill="url(#ak)"/><path d="M1894.021,1076.138l4-3.853,5.529,2.336s5.5.853,8.654,0l3.15-.853,7.119-2.216,1.118,3.16a1.9,1.9,0,0,1-.695,2.186,12.552,12.552,0,0,1-1.8,1.12c-.937.41-23.108-.284-23.108-.284Z" transform="translate(-1894.021 -1030.913)" fill="url(#al)"/><path d="M2015.9,765.818a1.232,1.232,0,0,1,.736-2.056c3.158-.492,7.973.01,10,6.771,2.278,7.615,3.761,11.423,5.283,12.091a1.238,1.238,0,0,1,.067,2.273,5.253,5.253,0,0,1-3.3.116C2017.042,782.453,2019.959,769.969,2015.9,765.818Z" transform="translate(-2000.834 -760.299)" fill="url(#am)"/></g><g transform="translate(20.762 25.99)"><path d="M1842.789,1109.153h-.053l-23.185-.026a1.038,1.038,0,1,1,0-2.075l23.185.025a1.038,1.038,0,0,1,.051,2.074Z" transform="translate(-1797.165 -1088.103)" fill="url(#an)"/><path d="M1643.876,950.663h19.308a3.68,3.68,0,0,1,3.329,2.11l8.926,18.928h-24a2.237,2.237,0,0,1-2.08-1.415l-6.922-17.515A1.542,1.542,0,0,1,1643.876,950.663Z" transform="translate(-1642.332 -950.663)" fill="url(#ao)"/><path d="M1744.972,1016.726c.419,1.3.11,2.563-.69,2.82s-1.787-.588-2.206-1.888-.109-2.562.69-2.82S1744.554,1015.426,1744.972,1016.726Z" transform="translate(-1729.825 -1007.021)" fill="#91b3fa"/></g><g transform="translate(0 46.82)"><path d="M1569.791,1123.629a.856.856,0,0,0-.2-.741.984.984,0,0,0-.738-.326H1472.1a1.12,1.12,0,0,0-.928.476.976.976,0,0,0-.072.989l1.048,2.127a1.477,1.477,0,0,0,1.333.8h94.7a1.1,1.1,0,0,0,1.091-.844Z" transform="translate(-1471 -1122.562)" fill="url(#ap)"/><g transform="translate(5.675 1.807)"><path d="M1518.682,1181.569a.826.826,0,0,1-.335-.071.876.876,0,0,1-.445-1.141L1535.709,1138a.842.842,0,0,1,1.115-.455.876.876,0,0,1,.445,1.141l-17.807,42.353A.849.849,0,0,1,1518.682,1181.569Z" transform="translate(-1517.833 -1137.478)" fill="url(#ap)"/><path d="M1555.078,1181.568a.849.849,0,0,1-.78-.526l-17.807-42.353a.876.876,0,0,1,.444-1.141.842.842,0,0,1,1.115.455l17.807,42.354a.876.876,0,0,1-.444,1.141A.831.831,0,0,1,1555.078,1181.568Z" transform="translate(-1534.17 -1137.476)" fill="url(#ap)"/><path d="M2097.35,1181.569a.824.824,0,0,1-.335-.071.877.877,0,0,1-.445-1.141L2114.377,1138a.842.842,0,0,1,1.116-.455.876.876,0,0,1,.445,1.141l-17.807,42.353A.847.847,0,0,1,2097.35,1181.569Z" transform="translate(-2026.38 -1137.478)" fill="url(#ap)"/><path d="M2133.745,1181.568a.849.849,0,0,1-.781-.526l-17.807-42.353a.876.876,0,0,1,.444-1.141.842.842,0,0,1,1.116.455l17.807,42.354a.877.877,0,0,1-.445,1.141A.833.833,0,0,1,2133.745,1181.568Z" transform="translate(-2042.715 -1137.476)" fill="url(#ap)"/></g></g></g><g transform="translate(330.869 109.544)"><g transform="translate(20.943 8.868)"><path d="M1834.336,185.353l1.112-.04a.221.221,0,0,1,.016.442h0l-1.1.04h-.008a.221.221,0,0,1-.016-.443Z" transform="translate(-1834.123 -185.282)" fill="#7d97f4"/><path d="M1852.625,185.071l1.109-.009a.22.22,0,1,1,0,.441h0l-1.1.009h0a.221.221,0,0,1,0-.442Z" transform="translate(-1850.191 -185.062)" fill="#7d97f4"/><path d="M1870.9,185.087l1.109.014a.22.22,0,1,1-.006.439h0l-1.1-.013h0a.22.22,0,1,1,.005-.44Z" transform="translate(-1866.248 -185.084)" fill="#7d97f4"/><path d="M1889.18,185.406l1.108.035a.219.219,0,0,1-.014.438h0l-1.1-.034h0a.219.219,0,1,1,.014-.438Z" transform="translate(-1882.31 -185.364)" fill="#7d97f4"/><path d="M1907.447,186.07l1.107.056a.218.218,0,0,1-.022.436h0l-1.1-.055h0a.219.219,0,1,1,.022-.437Z" transform="translate(-1898.36 -185.948)" fill="#7d97f4"/><path d="M1925.7,187.075l1.107.077a.218.218,0,0,1-.03.434h0l-1.1-.076h0a.218.218,0,0,1,.03-.435Z" transform="translate(-1914.394 -186.831)" fill="#7d97f4"/><path d="M1943.93,188.429l1.1.1a.217.217,0,0,1-.039.432h0l-1.1-.1h0a.217.217,0,0,1,.038-.432Z" transform="translate(-1930.417 -188.02)" fill="#7d97f4"/><path d="M1962.129,190.143l1.1.121a.216.216,0,1,1-.047.429h0l-1.1-.12h0a.216.216,0,1,1,.047-.43Z" transform="translate(-1946.407 -189.526)" fill="#7d97f4"/><path d="M1980.3,192.236l1.1.145a.215.215,0,0,1-.057.427h0l-1.095-.144h0a.216.216,0,1,1,.056-.428Z" transform="translate(-1962.369 -191.365)" fill="#7d97f4"/><path d="M1998.4,194.727l1.1.171a.215.215,0,0,1-.066.424h0l-1.092-.169h0a.215.215,0,1,1,.066-.425Z" transform="translate(-1978.278 -193.554)" fill="#7d97f4"/><path d="M2016.456,197.648l1.092.2a.214.214,0,0,1-.076.421h0l-1.087-.2h0a.214.214,0,1,1,.076-.421Z" transform="translate(-1994.14 -196.12)" fill="#7d97f4"/><path d="M2034.43,201.029l1.087.228a.213.213,0,0,1-.087.417h0l-1.081-.226h0a.213.213,0,1,1,.087-.418Z" transform="translate(-2009.931 -199.09)" fill="#7d97f4"/><path d="M2052.3,204.908l1.08.26a.212.212,0,1,1-.1.413h0l-1.074-.258h0a.213.213,0,1,1,.1-.414Z" transform="translate(-2025.634 -202.498)" fill="#7d97f4"/><path d="M2070.05,209.331l1.071.3a.211.211,0,1,1-.112.408h0l-1.064-.293h0a.212.212,0,0,1,.113-.409Z" transform="translate(-2041.225 -206.383)" fill="#7d97f4"/><path d="M2087.638,214.349l1.06.335a.211.211,0,0,1-.127.4h0l-1.052-.331h0a.211.211,0,0,1,.127-.4Z" transform="translate(-2056.677 -210.791)" fill="#7d97f4"/><path d="M2105.028,220.023l1.046.378a.21.21,0,0,1-.143.4l0,0-1.038-.374,0,0a.211.211,0,0,1,.143-.4Z" transform="translate(-2071.953 -215.776)" fill="#7d97f4"/><path d="M2122.165,226.425l1.028.426a.209.209,0,1,1-.16.387l0,0-1.019-.421,0,0a.21.21,0,0,1,.16-.388Z" transform="translate(-2087.006 -221.399)" fill="#7d97f4"/><path d="M2138.979,233.634l1,.479a.209.209,0,0,1-.18.377l0,0-1-.473,0,0a.209.209,0,1,1,.179-.377Z" transform="translate(-2101.774 -227.731)" fill="#7d97f4"/><path d="M2155.379,241.739l.976.539a.208.208,0,1,1-.2.364l-.005,0-.964-.531-.006,0a.208.208,0,0,1,.2-.365Z" transform="translate(-2116.179 -234.848)" fill="#7d97f4"/><path d="M2171.25,250.84l.938.6a.207.207,0,1,1-.224.348l-.007,0-.925-.6-.006,0a.208.208,0,0,1,.225-.349Z" transform="translate(-2130.117 -242.84)" fill="#7d97f4"/><path d="M2186.456,261.05l.889.667a.206.206,0,1,1-.248.33l0,0-.883-.661,0,0a.207.207,0,1,1,.248-.331Z" transform="translate(-2143.471 -251.805)" fill="#7d97f4"/><path d="M2201,272.156l.864.7a.206.206,0,1,1-.259.32l0,0-.859-.694,0,0a.206.206,0,0,1,.259-.321Z" transform="translate(-2156.248 -261.562)" fill="#7d97f4"/><path d="M2215.108,283.8l.834.735a.2.2,0,1,1-.271.308l0,0-.828-.728,0,0a.206.206,0,0,1,.272-.308Z" transform="translate(-2168.641 -271.791)" fill="#7d97f4"/><path d="M2228.7,296.042l.8.775a.2.2,0,1,1-.284.293l0,0-.791-.767,0,0a.2.2,0,1,1,.285-.294Z" transform="translate(-2180.581 -282.543)" fill="#7d97f4"/><path d="M2241.663,308.948l.754.819a.2.2,0,1,1-.3.276l0,0-.746-.809,0,0a.2.2,0,1,1,.3-.277Z" transform="translate(-2191.967 -293.878)" fill="#7d97f4"/><path d="M2253.851,322.59l.7.868a.2.2,0,0,1-.316.255l0-.006-.69-.856,0-.006a.2.2,0,1,1,.316-.255Z" transform="translate(-2202.672 -305.858)" fill="#7d97f4"/><path d="M2265.068,337.041l.631.922a.2.2,0,1,1-.333.228l0-.007-.622-.907,0-.007a.2.2,0,1,1,.334-.229Z" transform="translate(-2212.523 -318.547)" fill="#7d97f4"/><path d="M2275.067,352.373l.542.978a.2.2,0,1,1-.352.2l-.005-.009-.533-.959,0-.009a.2.2,0,1,1,.353-.2Z" transform="translate(-2221.303 -332.007)" fill="#7d97f4"/><path d="M2283.515,368.6l.431,1.033a.2.2,0,0,1-.371.154l0-.011-.422-1.011,0-.011a.2.2,0,0,1,.371-.155Z" transform="translate(-2228.719 -346.246)" fill="#7d97f4"/><path d="M2290.034,385.685l.293,1.081a.2.2,0,1,1-.385.1l0-.013-.287-1.054,0-.013a.2.2,0,1,1,.386-.105Z" transform="translate(-2234.442 -361.244)" fill="#7d97f4"/><path d="M2294.21,403.49l.133,1.114a.2.2,0,0,1-.4.047l0-.015-.13-1.084,0-.015a.2.2,0,0,1,.4-.047Z" transform="translate(-2238.109 -376.867)" fill="#7d97f4"/><path d="M2295.4,421.723l-.042,1.122a.2.2,0,0,1-.4-.015v-.016l.04-1.09v-.016a.2.2,0,1,1,.4.015Z" transform="translate(-2239.117 -392.864)" fill="#7d97f4"/><path d="M2292.762,439.965l-.215,1.1a.2.2,0,1,1-.387-.076l0-.015.209-1.072,0-.015a.2.2,0,1,1,.388.076Z" transform="translate(-2236.652 -408.869)" fill="#7d97f4"/><path d="M2287.467,457.782l-.372,1.057a.2.2,0,0,1-.372-.131l0-.012.362-1.032,0-.013a.2.2,0,1,1,.372.131Z" transform="translate(-2231.869 -424.503)" fill="#7d97f4"/><path d="M2279.883,474.837l-.5,1a.2.2,0,1,1-.35-.177l.005-.01.492-.979.006-.011a.2.2,0,1,1,.351.177Z" transform="translate(-2225.098 -439.473)" fill="#7d97f4"/><path d="M2270.431,490.943l-.609.936a.2.2,0,1,1-.327-.213l0-.008.6-.92.005-.008a.2.2,0,1,1,.328.213Z" transform="translate(-2216.71 -453.611)" fill="#7d97f4"/><path d="M2259.5,506.034l-.693.875a.195.195,0,0,1-.305-.242l.005-.006.681-.862.005-.007a.195.195,0,0,1,.306.242Z" transform="translate(-2207.039 -466.862)" fill="#7d97f4"/><path d="M2247.4,520.157l-.757.818a.194.194,0,1,1-.285-.264l0,0,.747-.808,0-.005a.194.194,0,1,1,.285.264Z" transform="translate(-2196.36 -479.264)" fill="#7d97f4"/><path d="M2234.39,533.376l-.808.766a.193.193,0,0,1-.266-.281l0,0,.8-.759,0,0a.194.194,0,0,1,.267.281Z" transform="translate(-2184.891 -490.874)" fill="#7d97f4"/><path d="M2221.037,545.884l-.8.759v0a.193.193,0,0,1-.265-.28l.807-.762a.193.193,0,1,1,.265.28h0Z" transform="translate(-2173.158 -501.866)" fill="#7d97f4"/><path d="M2207.985,558.52l-.782.78,0,0a.192.192,0,1,1-.271-.271l.786-.785a.192.192,0,0,1,.271.272h0Z" transform="translate(-2161.704 -512.975)" fill="#7d97f4"/><path d="M2195.379,571.546l-.752.808,0,0a.191.191,0,0,1-.28-.26l.757-.815a.191.191,0,1,1,.28.261h0Z" transform="translate(-2150.649 -524.428)" fill="#7d97f4"/><path d="M2183.408,585.078l-.708.845,0,0a.19.19,0,1,1-.292-.244l.715-.854a.191.191,0,1,1,.292.245h0Z" transform="translate(-2140.162 -536.327)" fill="#7d97f4"/><path d="M2172.385,599.277l-.642.893-.005.007a.19.19,0,0,1-.308-.221l.651-.907a.19.19,0,0,1,.309.222h0Z" transform="translate(-2130.525 -548.814)" fill="#7d97f4"/><path d="M2162.835,614.354l-.539.953-.007.011a.189.189,0,0,1-.329-.186l.551-.976a.189.189,0,1,1,.329.186h0Z" transform="translate(-2122.213 -562.077)" fill="#7d97f4"/><path d="M2155.619,630.539l-.378,1.023-.007.017a.188.188,0,1,1-.352-.13l.39-1.057a.189.189,0,0,1,.354.13h0Z" transform="translate(-2116.003 -576.32)" fill="#7d97f4"/><path d="M2151.881,648a9.316,9.316,0,0,0-.151,1.074.188.188,0,1,1-.374-.03,9.832,9.832,0,0,1,.156-1.117.188.188,0,0,1,.369.073Z" transform="translate(-2112.915 -591.703)" fill="#7d97f4"/><path d="M2151.514,666.064l.093,1.084v.019a.186.186,0,0,1-.371.032l-.1-1.122a.187.187,0,1,1,.372-.032h0Z" transform="translate(-2112.724 -607.61)" fill="#7d97f4"/><path d="M2153.938,684.15l.279,1.059,0,.012a.186.186,0,0,1-.359.095l-.286-1.083a.186.186,0,1,1,.36-.095h0Z" transform="translate(-2114.858 -623.539)" fill="#7d97f4"/><path d="M2159.106,701.676l.385,1.031,0,.006a.185.185,0,0,1-.347.13l-.39-1.043a.186.186,0,0,1,.348-.13h0Z" transform="translate(-2119.407 -638.962)" fill="#7d97f4"/><path d="M2165.746,718.713l.433,1.017v0a.184.184,0,1,1-.339.145l-.436-1.02a.185.185,0,1,1,.34-.145h0Z" transform="translate(-2125.248 -653.945)" fill="#7d97f4"/><path d="M2172.959,735.464l.394,1.047a.183.183,0,1,1-.343.13l0-.011-.387-1.023,0-.013a.184.184,0,0,1,.345-.13Z" transform="translate(-2131.587 -668.663)" fill="#7d97f4"/><path d="M2178.914,752.775l.279,1.08a.183.183,0,1,1-.354.092l0-.008-.275-1.064,0-.008a.183.183,0,0,1,.355-.092Z" transform="translate(-2136.816 -683.86)" fill="#7d97f4"/><path d="M2183.129,770.574l.191,1.1a.182.182,0,0,1-.359.063v-.007l-.189-1.083,0-.007a.183.183,0,0,1,.36-.063Z" transform="translate(-2140.519 -699.49)" fill="#7d97f4"/><path d="M2185.946,788.639l.112,1.108a.181.181,0,1,1-.361.036v-.006l-.111-1.095v-.006a.182.182,0,1,1,.362-.037Z" transform="translate(-2142.994 -715.355)" fill="#7d97f4"/><path d="M2187.476,806.858l.035,1.112a.181.181,0,1,1-.361.011v-.006l-.035-1.1v-.006a.181.181,0,1,1,.362-.012Z" transform="translate(-2144.339 -731.356)" fill="#7d97f4"/><path d="M2187.459,825.138l-.041,1.112a.18.18,0,1,1-.36-.013v-.006l.04-1.1v-.006a.181.181,0,0,1,.361.013Z" transform="translate(-2144.29 -747.411)" fill="#7d97f4"/><path d="M2185.919,843.4l-.118,1.107a.179.179,0,0,1-.357-.038v-.006l.116-1.095v-.006a.18.18,0,0,1,.358.038Z" transform="translate(-2142.871 -763.448)" fill="#7d97f4"/><path d="M2183.1,861.546l-.2,1.1a.179.179,0,1,1-.352-.063v-.006l.194-1.083v-.006a.179.179,0,0,1,.353.063Z" transform="translate(-2140.327 -779.387)" fill="#7d97f4"/><path d="M2178.985,879.477l-.276,1.078a.178.178,0,0,1-.345-.088v-.006l.272-1.066,0-.006a.178.178,0,0,1,.345.088Z" transform="translate(-2136.645 -795.134)" fill="#7d97f4"/><path d="M2173.568,897.1l-.355,1.055a.177.177,0,1,1-.335-.113l0-.006.351-1.043,0-.006a.178.178,0,0,1,.337.113Z" transform="translate(-2131.82 -810.615)" fill="#7d97f4"/><path d="M2166.853,914.322l-.434,1.026a.177.177,0,0,1-.325-.138l0-.006.428-1.014,0-.006a.177.177,0,1,1,.325.138Z" transform="translate(-2125.855 -825.737)" fill="#7d97f4"/><path d="M2158.87,931.029l-.51.99a.176.176,0,0,1-.313-.161l0-.006.5-.978,0-.006a.176.176,0,1,1,.313.161Z" transform="translate(-2118.777 -840.409)" fill="#7d97f4"/><path d="M2149.664,947.125l-.584.948a.175.175,0,1,1-.3-.183l0-.006.576-.938,0-.006a.175.175,0,0,1,.3.184Z" transform="translate(-2110.629 -854.546)" fill="#7d97f4"/><path d="M2139.3,962.523l-.653.9a.174.174,0,1,1-.282-.2l0-.005.644-.892,0-.005a.175.175,0,1,1,.283.2Z" transform="translate(-2101.471 -868.069)" fill="#7d97f4"/><path d="M2127.877,977.146l-.715.852a.174.174,0,1,1-.266-.223l0,0,.707-.843,0,0a.174.174,0,1,1,.266.224Z" transform="translate(-2091.383 -880.913)" fill="#7d97f4"/><path d="M2115.476,990.943l-.773.8a.173.173,0,1,1-.248-.24l0,0,.764-.792,0,0a.173.173,0,1,1,.249.24Z" transform="translate(-2080.442 -893.031)" fill="#7d97f4"/><path d="M2102.2,1003.887l-.824.747a.172.172,0,0,1-.231-.255l0,0,.816-.74,0,0a.172.172,0,0,1,.232.255Z" transform="translate(-2068.737 -904.401)" fill="#7d97f4"/><path d="M2088.148,1015.965l-.869.694a.171.171,0,0,1-.214-.268l0,0,.86-.689,0,0a.171.171,0,0,1,.214.268Z" transform="translate(-2056.358 -915.01)" fill="#7d97f4"/><path d="M2073.424,1027.177l-.908.643a.171.171,0,1,1-.2-.278l0,0,.9-.638,0,0a.171.171,0,0,1,.2.279Z" transform="translate(-2043.391 -924.86)" fill="#7d97f4"/><path d="M2058.128,1037.539l-.941.592a.17.17,0,0,1-.181-.287l0,0,.933-.588,0,0a.17.17,0,1,1,.182.288Z" transform="translate(-2029.928 -933.962)" fill="#7d97f4"/><path d="M2042.331,1047.079l-.97.544a.169.169,0,0,1-.165-.3l0,0,.962-.54,0,0a.169.169,0,0,1,.166.3Z" transform="translate(-2016.028 -942.344)" fill="#7d97f4"/><path d="M2026.109,1055.838l-.994.5a.168.168,0,0,1-.15-.3l0,0,.987-.494,0,0a.169.169,0,1,1,.151.3Z" transform="translate(-2001.758 -950.039)" fill="#7d97f4"/><path d="M2009.533,1063.85l-1.013.453a.168.168,0,1,1-.137-.306h0l1.007-.451,0,0a.168.168,0,0,1,.137.307Z" transform="translate(-1987.179 -957.079)" fill="#7d97f4"/><path d="M1992.652,1071.155l-1.031.413a.167.167,0,0,1-.124-.31h0l1.025-.411h0a.167.167,0,0,1,.124.31Z" transform="translate(-1972.335 -963.497)" fill="#7d97f4"/></g><g transform="translate(0 0)"><path d="M1801.257,156.713l.469,4.218-3.058-1.5Z" transform="translate(-1782.021 -151.281)" fill="#7d97f4"/><path d="M1661.291,117l12.5,8.724a1.074,1.074,0,0,0,1.518-.3l8.286-12.882a.43.43,0,0,0-.46-.652Z" transform="translate(-1661.291 -111.883)" fill="#91b3fa"/><path d="M1680.526,154.461l-19.234-.311,17.9,2.394.18,1.164Z" transform="translate(-1661.292 -149.028)" fill="#7d97f4"/><path d="M1802.452,175.138l2.6.9-1.8-2.134Z" transform="translate(-1785.346 -166.393)" fill="#7d97f4"/></g></g></g><g transform="translate(88.144 6.145)"><circle cx="43.5" cy="43.5" r="43.5" transform="translate(108.856 146.855)"/><circle cx="27.5" cy="27.5" r="27.5" transform="translate(124.856 162.855)" fill="#fff"/><g transform="translate(118 156)"><path d="M34.547,0A34.545,34.545,0,1,0,69.091,34.544,34.584,34.584,0,0,0,34.547,0ZM49.5,27.466,31.406,45.558a2.781,2.781,0,0,1-3.937,0L19.6,37.69a2.784,2.784,0,0,1,3.937-3.938l5.9,5.9L45.563,23.528A2.783,2.783,0,0,1,49.5,27.466Z" transform="translate(-0.003)" fill="#4bd478"/></g></g></g></svg>